<svg width="1440" height="127" viewBox="0 0 1440 127" fill="none" xmlns="http://www.w3.org/2000/svg">
<path d="M1440 0H0V127H1440V0Z" fill="#2D2D2D"/>
<path d="M1439.5 0.5H0.5V126.499H1439.5V0.5Z" fill="#2D2D2D"/>
<path d="M210.127 104H206.055V88.9219H210C211.966 88.9219 213.424 89.3223 214.375 90.123C215.495 91.0671 216.055 92.3789 216.055 94.0586C216.055 95.888 215.459 97.252 214.268 98.1504C213.454 98.7559 212.285 99.0586 210.762 99.0586H210.127V104ZM210.127 95.6699L210.312 95.6797C210.807 95.6797 211.201 95.5299 211.494 95.2305C211.787 94.9245 211.934 94.5078 211.934 93.9805C211.934 93.4596 211.79 93.0365 211.504 92.7109C211.217 92.3789 210.853 92.2129 210.41 92.2129H210.127V95.6699ZM228.203 104H223.799L221.787 98.6289C221.768 98.5378 221.732 98.4173 221.68 98.2676C221.634 98.1178 221.576 97.9388 221.504 97.7305L221.533 98.7266V104H217.48V88.9219H221.65C223.486 88.9219 224.86 89.2832 225.771 90.0059C226.93 90.9303 227.51 92.2454 227.51 93.9512C227.51 95.7741 226.732 97.0339 225.176 97.7305L228.203 104ZM221.553 95.9043H221.826C222.295 95.9043 222.686 95.7253 222.998 95.3672C223.311 95.0091 223.467 94.5534 223.467 94C223.467 92.8737 222.878 92.3105 221.699 92.3105H221.553V95.9043ZM240.439 96.5098C240.439 98.8079 239.915 100.676 238.867 102.115C237.826 103.548 236.468 104.264 234.795 104.264C233.311 104.264 232.038 103.714 230.977 102.613C229.642 101.22 228.975 99.1302 228.975 96.3438C228.975 93.6745 229.671 91.6335 231.064 90.2207C232.1 89.1725 233.327 88.6484 234.746 88.6484C236.484 88.6484 237.868 89.3581 238.896 90.7773C239.925 92.1966 240.439 94.1074 240.439 96.5098ZM236.211 96.5391C236.211 93.8112 235.729 92.4473 234.766 92.4473C234.284 92.4473 233.9 92.8053 233.613 93.5215C233.333 94.1855 233.193 95.1621 233.193 96.4512C233.193 97.7207 233.324 98.707 233.584 99.4102C233.851 100.107 234.219 100.455 234.688 100.455C235.169 100.455 235.54 100.11 235.801 99.4199C236.074 98.7298 236.211 97.7695 236.211 96.5391ZM247.432 95.2793H253.115V95.9043C253.115 98.8079 252.682 100.898 251.816 102.174C250.872 103.567 249.476 104.264 247.627 104.264C245.811 104.264 244.385 103.58 243.35 102.213C242.321 100.833 241.807 98.9382 241.807 96.5293C241.807 94.0879 242.324 92.1641 243.359 90.7578C244.395 89.3516 245.811 88.6484 247.607 88.6484C249.99 88.6484 251.719 89.8919 252.793 92.3789L248.848 93.8242C248.789 93.349 248.652 92.9746 248.438 92.7012C248.229 92.4212 247.965 92.2812 247.646 92.2812C246.527 92.2812 245.967 93.821 245.967 96.9004C245.967 98.209 246.09 99.1595 246.338 99.752C246.585 100.344 246.979 100.641 247.52 100.641C247.734 100.641 247.93 100.589 248.105 100.484C248.281 100.38 248.428 100.234 248.545 100.045C248.669 99.8561 248.763 99.6283 248.828 99.3613C248.9 99.0879 248.936 98.7852 248.936 98.4531H247.432V95.2793ZM265.586 104H261.182L259.17 98.6289C259.15 98.5378 259.115 98.4173 259.062 98.2676C259.017 98.1178 258.958 97.9388 258.887 97.7305L258.916 98.7266V104H254.863V88.9219H259.033C260.869 88.9219 262.243 89.2832 263.154 90.0059C264.313 90.9303 264.893 92.2454 264.893 93.9512C264.893 95.7741 264.115 97.0339 262.559 97.7305L265.586 104ZM258.936 95.9043H259.209C259.678 95.9043 260.068 95.7253 260.381 95.3672C260.693 95.0091 260.85 94.5534 260.85 94C260.85 92.8737 260.26 92.3105 259.082 92.3105H258.936V95.9043ZM277.793 104H273.584L273.281 102.086H270.537L270.205 104H265.996L269.619 88.9219H274.6L277.793 104ZM272.803 98.8535L272.539 97.0957C272.533 97.0892 272.52 97.0013 272.5 96.832C272.487 96.6888 272.419 96.1224 272.295 95.1328C272.282 95.0221 272.266 94.8724 272.246 94.6836C272.227 94.4883 272.201 94.2441 272.168 93.9512L272.041 92.5254C272.028 92.6621 272.008 92.8151 271.982 92.9844C271.963 93.1536 271.94 93.3392 271.914 93.541C271.868 93.9447 271.836 94.2246 271.816 94.3809C271.797 94.5371 271.784 94.6315 271.777 94.6641L271.494 96.4902L271.084 98.8535H272.803ZM294.502 104H290.244L289.941 97.125L289.814 94.3809C289.769 94.9082 289.717 95.4128 289.658 95.8945C289.6 96.3698 289.528 96.832 289.443 97.2812L288.164 104H284.844L283.75 97.2715C283.685 96.8809 283.597 96.2103 283.486 95.2598C283.473 95.1165 283.444 94.8236 283.398 94.3809L283.301 97.1641L282.939 104H278.604L280.361 88.9219H285.43L286.279 94C286.351 94.4167 286.413 94.8691 286.465 95.3574C286.523 95.8457 286.576 96.3763 286.621 96.9492C286.706 95.9922 286.823 95.1361 286.973 94.3809L288.008 88.9219H293.037L294.502 104Z" fill="#FFCC00"/>
<path d="M420.065 103.805H415.993V92.3398H413.747V88.7266H422.399V92.3398H420.065V103.805ZM423.454 103.805V88.7266H431.022V92.2715H427.526V94.4688H430.661V97.877H427.526V100.182H431.022V103.805H423.454ZM443.63 103.805H439.421L439.118 101.891H436.374L436.042 103.805H431.833L435.456 88.7266H440.436L443.63 103.805ZM438.639 98.6582L438.376 96.9004C438.369 96.8939 438.356 96.806 438.337 96.6367C438.324 96.4935 438.255 95.9271 438.132 94.9375C438.119 94.8268 438.102 94.6771 438.083 94.4883C438.063 94.293 438.037 94.0488 438.005 93.7559L437.878 92.3301C437.865 92.4668 437.845 92.6198 437.819 92.7891C437.8 92.9583 437.777 93.1439 437.751 93.3457C437.705 93.7493 437.673 94.0293 437.653 94.1855C437.634 94.3418 437.62 94.4362 437.614 94.4688L437.331 96.2949L436.921 98.6582H438.639ZM460.339 103.805H456.081L455.778 96.9297L455.651 94.1855C455.606 94.7129 455.553 95.2174 455.495 95.6992C455.436 96.1745 455.365 96.6367 455.28 97.0859L454.001 103.805H450.68L449.587 97.0762C449.522 96.6855 449.434 96.015 449.323 95.0645C449.31 94.9212 449.281 94.6283 449.235 94.1855L449.137 96.9688L448.776 103.805H444.44L446.198 88.7266H451.266L452.116 93.8047C452.188 94.2214 452.249 94.6738 452.301 95.1621C452.36 95.6504 452.412 96.181 452.458 96.7539C452.542 95.7969 452.66 94.9408 452.809 94.1855L453.844 88.7266H458.874L460.339 103.805ZM461.823 103.434V98.6973C462.624 99.791 463.49 100.338 464.421 100.338C464.772 100.338 465.059 100.247 465.28 100.064C465.501 99.8757 465.612 99.6413 465.612 99.3613C465.612 98.9577 465.371 98.5638 464.889 98.1797L464.225 97.6621C463.783 97.3301 463.405 97.0013 463.092 96.6758C462.78 96.3438 462.526 96.0052 462.331 95.6602C462.135 95.3086 461.992 94.9473 461.901 94.5762C461.81 94.2051 461.764 93.8145 461.764 93.4043C461.764 92.7012 461.927 91.9655 462.253 91.1973C462.415 90.8392 462.604 90.5137 462.819 90.2207C463.034 89.9212 463.281 89.6576 463.561 89.4297C464.329 88.7786 465.257 88.4531 466.344 88.4531C467.314 88.4531 468.291 88.7103 469.274 89.2246V93.834C468.942 93.3197 468.564 92.916 468.141 92.623C467.718 92.3236 467.301 92.1738 466.891 92.1738C466.579 92.1738 466.322 92.265 466.12 92.4473C465.912 92.623 465.807 92.8346 465.807 93.082C465.807 93.4857 466.084 93.8861 466.637 94.2832L467.282 94.7617C468.141 95.3802 468.757 96.015 469.128 96.666C469.505 97.3171 469.694 98.0788 469.694 98.9512C469.694 100.436 469.242 101.66 468.337 102.623C467.432 103.587 466.286 104.068 464.899 104.068C463.942 104.068 462.917 103.857 461.823 103.434Z" fill="#FFCC00"/>
<path d="M615.714 104.473H611.31L609.298 99.1016C609.278 99.0104 609.242 98.89 609.19 98.7402C609.145 98.5905 609.086 98.4115 609.015 98.2031L609.044 99.1992V104.473H604.991V89.3945H609.161C610.997 89.3945 612.371 89.7559 613.282 90.4785C614.441 91.403 615.02 92.7181 615.02 94.4238C615.02 96.2467 614.242 97.5065 612.686 98.2031L615.714 104.473ZM609.063 96.377H609.337C609.806 96.377 610.196 96.1979 610.509 95.8398C610.821 95.4818 610.977 95.026 610.977 94.4727C610.977 93.3464 610.388 92.7832 609.21 92.7832H609.063V96.377ZM623.097 89.3945H627.169V100.059C627.169 100.951 627.029 101.673 626.749 102.227C626.476 102.806 626.02 103.33 625.382 103.799C624.522 104.424 623.477 104.736 622.247 104.736C620.854 104.736 619.685 104.391 618.741 103.701C617.543 102.822 616.944 101.416 616.944 99.4824V89.3945H621.017V99.1211C621.017 99.7786 621.095 100.244 621.251 100.518C621.414 100.791 621.684 100.928 622.061 100.928C622.452 100.928 622.722 100.801 622.872 100.547C623.022 100.28 623.097 99.8079 623.097 99.1309V89.3945ZM636.417 104.473H629.288V89.3945H633.36V100.85H636.417V104.473ZM637.628 104.473V89.3945H645.196V92.9395H641.7V95.1367H644.835V98.5449H641.7V100.85H645.196V104.473H637.628ZM646.622 104.102V99.3652C647.423 100.459 648.289 101.006 649.22 101.006C649.571 101.006 649.858 100.915 650.079 100.732C650.3 100.544 650.411 100.309 650.411 100.029C650.411 99.6257 650.17 99.2318 649.688 98.8477L649.024 98.3301C648.582 97.998 648.204 97.6693 647.892 97.3438C647.579 97.0117 647.325 96.6732 647.13 96.3281C646.935 95.9766 646.791 95.6152 646.7 95.2441C646.609 94.873 646.563 94.4824 646.563 94.0723C646.563 93.3691 646.726 92.6335 647.052 91.8652C647.214 91.5072 647.403 91.1816 647.618 90.8887C647.833 90.5892 648.08 90.3255 648.36 90.0977C649.129 89.4466 650.056 89.1211 651.143 89.1211C652.114 89.1211 653.09 89.3783 654.073 89.8926V94.502C653.741 93.9876 653.364 93.584 652.94 93.291C652.517 92.9915 652.101 92.8418 651.69 92.8418C651.378 92.8418 651.121 92.9329 650.919 93.1152C650.711 93.291 650.606 93.5026 650.606 93.75C650.606 94.1536 650.883 94.554 651.436 94.9512L652.081 95.4297C652.94 96.0482 653.556 96.6829 653.927 97.334C654.304 97.985 654.493 98.7467 654.493 99.6191C654.493 101.104 654.041 102.327 653.136 103.291C652.231 104.255 651.085 104.736 649.698 104.736C648.741 104.736 647.716 104.525 646.622 104.102Z" fill="#FFCC00"/>
<path d="M796.893 104H792.742L789.285 88.9219H793.562L794.305 93.2285C794.585 94.8757 794.809 96.7181 794.979 98.7559C795.05 97.8509 795.138 97.0046 795.242 96.2168C795.346 95.429 795.47 94.6608 795.613 93.9121L796.58 88.9219H801.004L796.893 104ZM802.059 104V88.9219H809.627V92.4668H806.131V94.6641H809.266V98.0723H806.131V100.377H809.627V104H802.059ZM811.375 104V88.9219H815.262L817.303 94.2148C817.413 94.5273 817.537 94.8854 817.674 95.2891C817.817 95.6927 817.973 96.1582 818.143 96.6855L818.562 98.0137C818.413 96.7051 818.299 95.5853 818.221 94.6543C818.143 93.7233 818.104 92.9421 818.104 92.3105V88.9219H821.99V104H818.104L816.053 98.4531C815.838 97.8607 815.643 97.3073 815.467 96.793C815.298 96.2721 815.148 95.7773 815.018 95.3086C815.102 96.3698 815.164 97.2943 815.203 98.082C815.242 98.8698 815.262 99.5599 815.262 100.152V104H811.375ZM830.262 88.9219H834.334V99.5859C834.334 100.478 834.194 101.201 833.914 101.754C833.641 102.333 833.185 102.857 832.547 103.326C831.688 103.951 830.643 104.264 829.412 104.264C828.019 104.264 826.85 103.919 825.906 103.229C824.708 102.35 824.109 100.943 824.109 99.0098V88.9219H828.182V98.6484C828.182 99.306 828.26 99.7715 828.416 100.045C828.579 100.318 828.849 100.455 829.227 100.455C829.617 100.455 829.887 100.328 830.037 100.074C830.187 99.8073 830.262 99.3353 830.262 98.6582V88.9219ZM836.453 104V88.9219H844.021V92.4668H840.525V94.6641H843.66V98.0723H840.525V100.377H844.021V104H836.453Z" fill="#FFCC00"/>
<path d="M1164.44 99.3613L1164.21 103.717C1163.3 104.081 1162.49 104.264 1161.78 104.264C1160.09 104.264 1158.67 103.645 1157.52 102.408C1156.23 101.021 1155.58 99.0586 1155.58 96.5195C1155.58 94.1432 1156.19 92.2357 1157.4 90.7969C1158.61 89.3646 1160.23 88.6484 1162.25 88.6484C1162.91 88.6484 1163.58 88.7721 1164.27 89.0195V93.3262C1163.66 92.7207 1163.04 92.418 1162.4 92.418C1161.57 92.418 1160.92 92.7728 1160.45 93.4824C1159.98 94.1986 1159.74 95.1882 1159.74 96.4512C1159.74 97.0632 1159.8 97.61 1159.92 98.0918C1160.04 98.5736 1160.2 98.9805 1160.42 99.3125C1160.64 99.6445 1160.91 99.8984 1161.23 100.074C1161.55 100.25 1161.91 100.338 1162.32 100.338C1163.03 100.338 1163.73 100.012 1164.44 99.3613ZM1177.14 104H1172.93L1172.62 102.086H1169.88L1169.55 104H1165.34L1168.96 88.9219H1173.94L1177.14 104ZM1172.15 98.8535L1171.88 97.0957C1171.88 97.0892 1171.86 97.0013 1171.84 96.832C1171.83 96.6888 1171.76 96.1224 1171.64 95.1328C1171.63 95.0221 1171.61 94.8724 1171.59 94.6836C1171.57 94.4883 1171.54 94.2441 1171.51 93.9512L1171.38 92.5254C1171.37 92.6621 1171.35 92.8151 1171.33 92.9844C1171.31 93.1536 1171.28 93.3392 1171.26 93.541C1171.21 93.9447 1171.18 94.2246 1171.16 94.3809C1171.14 94.5371 1171.13 94.6315 1171.12 94.6641L1170.84 96.4902L1170.43 98.8535H1172.15ZM1183.59 104H1179.52V92.5352H1177.27V88.9219H1185.93V92.5352H1183.59V104ZM1186.98 104V88.9219H1194.55V92.4668H1191.05V94.6641H1194.19V98.0723H1191.05V100.377H1194.55V104H1186.98ZM1207.02 104H1202.62L1200.6 98.6289C1200.58 98.5378 1200.55 98.4173 1200.5 98.2676C1200.45 98.1178 1200.39 97.9388 1200.32 97.7305L1200.35 98.7266V104H1196.3V88.9219H1200.47C1202.3 88.9219 1203.68 89.2832 1204.59 90.0059C1205.75 90.9303 1206.33 92.2454 1206.33 93.9512C1206.33 95.7741 1205.55 97.0339 1203.99 97.7305L1207.02 104ZM1200.37 95.9043H1200.64C1201.11 95.9043 1201.5 95.7253 1201.81 95.3672C1202.13 95.0091 1202.28 94.5534 1202.28 94C1202.28 92.8737 1201.69 92.3105 1200.52 92.3105H1200.37V95.9043ZM1212.44 104H1208.37V88.9219H1212.44V104ZM1214.56 104V88.9219H1218.45L1220.49 94.2148C1220.6 94.5273 1220.72 94.8854 1220.86 95.2891C1221 95.6927 1221.16 96.1582 1221.33 96.6855L1221.75 98.0137C1221.6 96.7051 1221.48 95.5853 1221.4 94.6543C1221.33 93.7233 1221.29 92.9421 1221.29 92.3105V88.9219H1225.17V104H1221.29L1219.24 98.4531C1219.02 97.8607 1218.83 97.3073 1218.65 96.793C1218.48 96.2721 1218.33 95.7773 1218.2 95.3086C1218.29 96.3698 1218.35 97.2943 1218.39 98.082C1218.43 98.8698 1218.45 99.5599 1218.45 100.152V104H1214.56ZM1232.71 95.2793H1238.4V95.9043C1238.4 98.8079 1237.96 100.898 1237.1 102.174C1236.15 103.567 1234.76 104.264 1232.91 104.264C1231.09 104.264 1229.67 103.58 1228.63 102.213C1227.6 100.833 1227.09 98.9382 1227.09 96.5293C1227.09 94.0879 1227.61 92.1641 1228.64 90.7578C1229.68 89.3516 1231.09 88.6484 1232.89 88.6484C1235.27 88.6484 1237 89.8919 1238.07 92.3789L1234.13 93.8242C1234.07 93.349 1233.93 92.9746 1233.72 92.7012C1233.51 92.4212 1233.25 92.2812 1232.93 92.2812C1231.81 92.2812 1231.25 93.821 1231.25 96.9004C1231.25 98.209 1231.37 99.1595 1231.62 99.752C1231.87 100.344 1232.26 100.641 1232.8 100.641C1233.02 100.641 1233.21 100.589 1233.39 100.484C1233.56 100.38 1233.71 100.234 1233.83 100.045C1233.95 99.8561 1234.04 99.6283 1234.11 99.3613C1234.18 99.0879 1234.22 98.7852 1234.22 98.4531H1232.71V95.2793Z" fill="#FFCC00"/>
<path d="M963.318 104H959.246V92.5352H957V88.9219H965.652V92.5352H963.318V104ZM977.43 104H973.025L971.014 98.6289C970.994 98.5378 970.958 98.4173 970.906 98.2676C970.861 98.1178 970.802 97.9388 970.73 97.7305L970.76 98.7266V104H966.707V88.9219H970.877C972.713 88.9219 974.087 89.2832 974.998 90.0059C976.157 90.9303 976.736 92.2454 976.736 93.9512C976.736 95.7741 975.958 97.0339 974.402 97.7305L977.43 104ZM970.779 95.9043H971.053C971.521 95.9043 971.912 95.7253 972.225 95.3672C972.537 95.0091 972.693 94.5534 972.693 94C972.693 92.8737 972.104 92.3105 970.926 92.3105H970.779V95.9043ZM989.637 104H985.428L985.125 102.086H982.381L982.049 104H977.84L981.463 88.9219H986.443L989.637 104ZM984.646 98.8535L984.383 97.0957C984.376 97.0892 984.363 97.0013 984.344 96.832C984.331 96.6888 984.262 96.1224 984.139 95.1328C984.126 95.0221 984.109 94.8724 984.09 94.6836C984.07 94.4883 984.044 94.2441 984.012 93.9512L983.885 92.5254C983.872 92.6621 983.852 92.8151 983.826 92.9844C983.807 93.1536 983.784 93.3392 983.758 93.541C983.712 93.9447 983.68 94.2246 983.66 94.3809C983.641 94.5371 983.628 94.6315 983.621 94.6641L983.338 96.4902L982.928 98.8535H984.646ZM990.828 104V88.9219H994.715L996.756 94.2148C996.867 94.5273 996.99 94.8854 997.127 95.2891C997.27 95.6927 997.426 96.1582 997.596 96.6855L998.016 98.0137C997.866 96.7051 997.752 95.5853 997.674 94.6543C997.596 93.7233 997.557 92.9421 997.557 92.3105V88.9219H1001.44V104H997.557L995.506 98.4531C995.291 97.8607 995.096 97.3073 994.92 96.793C994.751 96.2721 994.601 95.7773 994.471 95.3086C994.555 96.3698 994.617 97.2943 994.656 98.082C994.695 98.8698 994.715 99.5599 994.715 100.152V104H990.828ZM1003.24 103.629V98.8926C1004.04 99.9863 1004.91 100.533 1005.84 100.533C1006.19 100.533 1006.48 100.442 1006.7 100.26C1006.92 100.071 1007.03 99.8366 1007.03 99.5566C1007.03 99.153 1006.79 98.7591 1006.31 98.375L1005.64 97.8574C1005.2 97.5254 1004.82 97.1966 1004.51 96.8711C1004.2 96.5391 1003.94 96.2005 1003.75 95.8555C1003.55 95.5039 1003.41 95.1426 1003.32 94.7715C1003.23 94.4004 1003.18 94.0098 1003.18 93.5996C1003.18 92.8965 1003.34 92.1608 1003.67 91.3926C1003.83 91.0345 1004.02 90.709 1004.24 90.416C1004.45 90.1165 1004.7 89.8529 1004.98 89.625C1005.75 88.974 1006.67 88.6484 1007.76 88.6484C1008.73 88.6484 1009.71 88.9056 1010.69 89.4199V94.0293C1010.36 93.515 1009.98 93.1113 1009.56 92.8184C1009.14 92.5189 1008.72 92.3691 1008.31 92.3691C1008 92.3691 1007.74 92.4603 1007.54 92.6426C1007.33 92.8184 1007.22 93.0299 1007.22 93.2773C1007.22 93.681 1007.5 94.0814 1008.05 94.4785L1008.7 94.957C1009.56 95.5755 1010.17 96.2103 1010.54 96.8613C1010.92 97.5124 1011.11 98.2741 1011.11 99.1465C1011.11 100.631 1010.66 101.855 1009.75 102.818C1008.85 103.782 1007.7 104.264 1006.32 104.264C1005.36 104.264 1004.33 104.052 1003.24 103.629ZM1016.78 104H1012.7V88.9219H1016.65C1018.61 88.9219 1020.07 89.3223 1021.02 90.123C1022.14 91.0671 1022.7 92.3789 1022.7 94.0586C1022.7 95.888 1022.11 97.252 1020.92 98.1504C1020.1 98.7559 1018.93 99.0586 1017.41 99.0586H1016.78V104ZM1016.78 95.6699L1016.96 95.6797C1017.46 95.6797 1017.85 95.5299 1018.14 95.2305C1018.44 94.9245 1018.58 94.5078 1018.58 93.9805C1018.58 93.4596 1018.44 93.0365 1018.15 92.7109C1017.87 92.3789 1017.5 92.2129 1017.06 92.2129H1016.78V95.6699ZM1035.21 96.5098C1035.21 98.8079 1034.69 100.676 1033.64 102.115C1032.6 103.548 1031.24 104.264 1029.57 104.264C1028.08 104.264 1026.81 103.714 1025.75 102.613C1024.42 101.22 1023.75 99.1302 1023.75 96.3438C1023.75 93.6745 1024.44 91.6335 1025.84 90.2207C1026.87 89.1725 1028.1 88.6484 1029.52 88.6484C1031.26 88.6484 1032.64 89.3581 1033.67 90.7773C1034.7 92.1966 1035.21 94.1074 1035.21 96.5098ZM1030.98 96.5391C1030.98 93.8112 1030.5 92.4473 1029.54 92.4473C1029.06 92.4473 1028.67 92.8053 1028.39 93.5215C1028.11 94.1855 1027.97 95.1621 1027.97 96.4512C1027.97 97.7207 1028.1 98.707 1028.36 99.4102C1028.62 100.107 1028.99 100.455 1029.46 100.455C1029.94 100.455 1030.31 100.11 1030.57 99.4199C1030.85 98.7298 1030.98 97.7695 1030.98 96.5391ZM1047.68 104H1043.28L1041.27 98.6289C1041.25 98.5378 1041.21 98.4173 1041.16 98.2676C1041.11 98.1178 1041.06 97.9388 1040.98 97.7305L1041.01 98.7266V104H1036.96V88.9219H1041.13C1042.97 88.9219 1044.34 89.2832 1045.25 90.0059C1046.41 90.9303 1046.99 92.2454 1046.99 93.9512C1046.99 95.7741 1046.21 97.0339 1044.66 97.7305L1047.68 104ZM1041.03 95.9043H1041.31C1041.78 95.9043 1042.17 95.7253 1042.48 95.3672C1042.79 95.0091 1042.95 94.5534 1042.95 94C1042.95 92.8737 1042.36 92.3105 1041.18 92.3105H1041.03V95.9043ZM1054.43 104H1050.36V92.5352H1048.11V88.9219H1056.77V92.5352H1054.43V104Z" fill="#FFCC00"/>
</svg>
