<svg width="54" height="42" viewBox="0 0 54 42" fill="none" xmlns="http://www.w3.org/2000/svg">
<path d="M26.9867 37.118H54V42H0V37.118H26.9867ZM35.4276 16.1641L22.7756 0L14.3392 1.47949L21.7186 18.5682L35.4276 16.1641ZM12.5389 28.3617C14.9494 29.6432 17.7228 30.0828 20.4145 29.61L46.7781 24.9871C47.8969 24.7909 48.8914 24.1608 49.543 23.2354C50.1946 22.31 50.4498 21.1651 50.2525 20.0525C50.0553 18.94 49.4217 17.9509 48.4911 17.3029C47.5606 16.6549 46.4093 16.4011 45.2905 16.5973L4.16315 23.8091L12.5389 28.3617ZM12.2277 20.2323L7.7625 13.4463L2.48977 14.3709L3.79129 21.7117L12.2277 20.2323Z" fill="#FFCC00"/>
</svg>
