<svg width="68" height="40" viewBox="0 0 68 40" fill="none" xmlns="http://www.w3.org/2000/svg">
<path d="M54.0909 12.6118V6.22789C56.5782 6.5987 59.8346 7.5019 61.8182 6.52551V0.439239C58.7273 1.96081 52.5455 -1.08233 51 0.439239V12.6118H32.4545V6.22789C34.9418 6.5987 38.1982 7.5019 40.1818 6.52551V0.439239C37.0909 1.96081 30.9091 -1.08233 29.3636 0.439239V12.6118H10.8182V6.22789C13.3054 6.5987 16.5619 7.5019 18.5455 6.52551V0.439239C15.4545 1.96081 9.27273 -1.08233 7.72727 0.439239V12.6118H0V40H30.9091V29.349H37.0909V40H68V12.6118H54.0909ZM43.2727 18.6981H49.4545V24.7843H43.2727V18.6981ZM6.18182 18.6981H12.3636V24.7843H6.18182V18.6981ZM24.7273 36.9569H6.18182V29.349H24.7273V36.9569ZM24.7273 24.7843H18.5455V18.6981H24.7273V24.7843ZM37.0909 24.7843H30.9091V18.6981H37.0909V24.7843ZM61.8182 36.9569H43.2727V29.349H61.8182V36.9569ZM61.8182 24.7843H55.6364V18.6981H61.8182V24.7843Z" fill="#FFCC00"/>
</svg>
