<svg width="74" height="48" viewBox="0 0 74 48" fill="none" xmlns="http://www.w3.org/2000/svg">
<path d="M54.619 6.22223C54.619 4.99159 54.9807 3.78858 55.6583 2.76534C56.3359 1.7421 57.299 0.944586 58.4258 0.473641C59.5526 0.00269598 60.7926 -0.120525 61.9888 0.119561C63.185 0.359647 64.2838 0.952257 65.1462 1.82245C66.0086 2.69264 66.5959 3.80134 66.8339 5.00833C67.0718 6.21532 66.9497 7.4664 66.483 8.60337C66.0162 9.74033 65.2258 10.7121 64.2117 11.3958C63.1976 12.0795 62.0054 12.4444 60.7857 12.4444C59.1502 12.4444 57.5817 11.7889 56.4252 10.622C55.2687 9.45511 54.619 7.87246 54.619 6.22223ZM54.8455 26.1015L56.0159 33.7778H74L70.8259 17.7648C70.7273 17.2672 70.4609 16.8194 70.0719 16.4976C69.683 16.1759 69.1956 16 68.6926 16H64.3095C64.3095 16.943 63.9383 17.8474 63.2774 18.5142C62.6166 19.181 61.7203 19.5556 60.7857 19.5556C59.8511 19.5556 58.9548 19.181 58.294 18.5142C57.6332 17.8474 57.2619 16.943 57.2619 16H52.8788C52.3759 16 51.8884 16.1759 51.4995 16.4976C51.1106 16.8194 50.8441 17.2672 50.7455 17.7648L50.0258 21.3954C51.2295 21.5378 52.3534 22.0757 53.2243 22.9261C54.0952 23.7765 54.6649 24.8923 54.8455 26.1015ZM13.2143 12.4444C14.4339 12.4444 15.6262 12.0795 16.6403 11.3958C17.6544 10.7121 18.4448 9.74033 18.9115 8.60337C19.3783 7.4664 19.5004 6.21532 19.2625 5.00833C19.0245 3.80134 18.4372 2.69264 17.5748 1.82245C16.7124 0.952257 15.6136 0.359647 14.4173 0.119561C13.2211 -0.120525 11.9812 0.00269598 10.8544 0.473641C9.72759 0.944586 8.76449 1.7421 8.08689 2.76534C7.40929 3.78858 7.04762 4.99159 7.04762 6.22223C7.04762 7.87246 7.69732 9.45511 8.85379 10.622C10.0103 11.7889 11.5788 12.4444 13.2143 12.4444ZM24.0694 21.8754L23.2545 17.7648C23.1559 17.2672 22.8894 16.8194 22.5005 16.4976C22.1116 16.1759 21.6241 16 21.1212 16H16.7381C16.7381 16.943 16.3668 17.8474 15.706 18.5142C15.0452 19.181 14.1489 19.5556 13.2143 19.5556C12.2797 19.5556 11.3834 19.181 10.7226 18.5142C10.0617 17.8474 9.69048 16.943 9.69048 16H5.30739C4.80443 16 4.31702 16.1759 3.92807 16.4976C3.53913 16.8194 3.27268 17.2672 3.17407 17.7648L0 33.7778H19.746L20.9165 26.1015C21.0541 25.1887 21.4142 24.3247 21.9645 23.5871C22.5148 22.8494 23.2381 22.2613 24.0694 21.8754ZM37.881 19.5556C39.4491 19.5556 40.982 19.0864 42.2858 18.2073C43.5897 17.3283 44.6059 16.0788 45.206 14.617C45.8061 13.1552 45.9631 11.5467 45.6572 9.99483C45.3513 8.44299 44.5961 7.01753 43.4873 5.89871C42.3785 4.77988 40.9657 4.01796 39.4277 3.70928C37.8897 3.40059 36.2956 3.55902 34.8468 4.16452C33.3981 4.77002 32.1598 5.7954 31.2886 7.111C30.4174 8.42659 29.9524 9.97331 29.9524 11.5556C29.9524 13.6773 30.7877 15.7121 32.2746 17.2124C33.7615 18.7127 35.7782 19.5556 37.881 19.5556ZM51.3625 26.6423C51.2881 26.1541 51.0429 25.7089 50.6714 25.3873C50.2998 25.0656 49.8264 24.8888 49.3369 24.8889H43.1667C43.1667 26.3034 42.6098 27.6599 41.6185 28.6601C40.6273 29.6603 39.2828 30.2222 37.881 30.2222C36.4791 30.2222 35.1347 29.6603 34.1434 28.6601C33.1521 27.6599 32.5952 26.3034 32.5952 24.8889H26.425C25.9354 24.8887 25.4619 25.0654 25.0902 25.3871C24.7185 25.7087 24.4733 26.154 24.3989 26.6423L21.1429 48H54.619L51.3625 26.6423Z" fill="#FFCC00"/>
</svg>
