<svg width="36" height="48" viewBox="0 0 36 48" fill="none" xmlns="http://www.w3.org/2000/svg">
<path d="M25.2 2.46154V1.22203C25.2 0.547077 24.6666 0 24.0085 0H11.9915C11.3334 0 10.8 0.547077 10.8 1.22203V2.46154H0V48H36V2.46154H25.2ZM13.2 2.46154H22.8V6.15385H13.2V2.46154ZM6 16H13.2V23.3846H6V16ZM13.8426 37.0724L12.1456 38.8129L9.6 36.2021L7.05444 38.8129L5.3574 37.0724L7.90296 34.4615L5.3574 31.8507L7.05444 30.1102L9.6 32.721L12.1456 30.1102L13.8426 31.8507L11.297 34.4615L13.8426 37.0724ZM30 35.6923H18V33.2308H30V35.6923ZM30 20.9231H18V18.4615H30V20.9231Z" fill="#FFCC00"/>
</svg>
