<svg width="52" height="54" viewBox="0 0 52 54" fill="none" xmlns="http://www.w3.org/2000/svg">
<path d="M1.22762e-06 3.67363V49.3454C-0.000393209 49.8279 0.0942659 50.3058 0.278563 50.7517C0.46286 51.1975 0.733177 51.6027 1.07405 51.9439C1.41492 52.2851 1.81966 52.5557 2.26511 52.7402C2.71056 52.9246 3.18797 53.0194 3.67004 53.019H48.0734C48.5554 53.0194 49.0329 52.9246 49.4783 52.7402C49.9238 52.5557 50.3285 52.2851 50.6694 51.9439C51.0102 51.6027 51.2806 51.1975 51.4649 50.7517C51.6492 50.3058 51.7438 49.8279 51.7434 49.3454V3.67363C51.7438 3.19109 51.6492 2.71321 51.4649 2.26733C51.2806 1.82144 51.0102 1.41631 50.6694 1.0751C50.3285 0.733896 49.9238 0.463313 49.4783 0.278836C49.0329 0.0943582 48.5554 -0.000393594 48.0734 1.22882e-06H3.67004C3.18797 -0.000393594 2.71056 0.0943582 2.26511 0.278836C1.81966 0.463313 1.41492 0.733896 1.07405 1.0751C0.733177 1.41631 0.46286 1.82144 0.278563 2.26733C0.0942659 2.71321 -0.000393209 3.19109 1.22762e-06 3.67363ZM45.9329 42.2203H5.81148C5.32941 42.2206 4.85199 42.1259 4.40655 41.9414C3.9611 41.7569 3.55636 41.4864 3.21549 41.1452C2.87462 40.8039 2.6043 40.3988 2.42 39.9529C2.2357 39.507 2.14104 39.0292 2.14144 38.5466V5.81717C2.14091 5.33455 2.23548 4.85656 2.41971 4.41056C2.60395 3.96456 2.87425 3.5593 3.21513 3.21799C3.55602 2.87668 3.9608 2.60601 4.40632 2.42147C4.85183 2.23693 5.32932 2.14214 5.81148 2.14254H45.9009C46.383 2.14214 46.8604 2.23689 47.3059 2.42137C47.7513 2.60585 48.1561 2.87643 48.4969 3.21764C48.8378 3.55884 49.1081 3.96398 49.2924 4.40986C49.4767 4.85575 49.5714 5.33363 49.571 5.81617V38.5466C49.5734 39.5161 49.1919 40.4471 48.51 41.1356C47.8281 41.8242 46.9015 42.2142 45.9329 42.2203Z" fill="#FFCC00"/>
<path d="M25.8584 12.5801C24.0547 12.5801 22.2915 13.1155 20.7918 14.1185C19.2921 15.1216 18.1232 16.5473 17.433 18.2153C16.7427 19.8833 16.5621 21.7187 16.914 23.4895C17.2659 25.2603 18.1344 26.8868 19.4098 28.1635C20.6852 29.4401 22.3102 30.3095 24.0792 30.6618C25.8483 31.014 27.6819 30.8332 29.3483 30.1423C31.0147 29.4514 32.439 28.2813 33.4411 26.7802C34.4431 25.279 34.978 23.5141 34.978 21.7086C34.9764 19.2881 34.0151 16.9671 32.3052 15.2555C30.5952 13.5439 28.2766 12.5817 25.8584 12.5801ZM31.8918 22.5993H26.7201V27.7479H24.9966V22.5993H19.853V20.874H24.9966V15.6973H26.7201V20.874H31.8648V22.5993H31.8918Z" fill="#FFCC00"/>
</svg>
