<svg width="60" height="61" viewBox="0 0 60 61" fill="none" xmlns="http://www.w3.org/2000/svg">
<path d="M3.19599 32.6498L4.84556 32.3296L2.50617 32.2555L2.09628 29.4205L6.30717 28.9521L0.812616 28.6299L0.196777 25.8469L3.9148 25.5277L1.57542 24.7882L2.60914 22.6196L0.689648 21.706L1.50243 19.5614L4.48165 20.4981L0.590674 18.1324L1.72338 15.1503L8.34664 18.995L3.66787 15.7417L6.5731 13.2769L9.38037 15.2984L8.51859 14.2876L10.4181 13.4741L8.64256 12.0941L10.859 10.2928L12.1636 11.3776L10.735 9.50621L12.6555 7.41471L15.8327 10.2167L13.8872 6.96739L16.5215 5.93265L17.7032 7.88005L17.2103 6.32693L19.4277 5.21314L20.4615 6.52408L19.3537 2.72836L21.8901 2.0879L22.7768 3.78912L22.4309 1.47145L25.1152 0.509766L26.4699 5.46432L26.5898 0.583819L28.9812 0.809981L29.5971 4.06331L29.843 2.75738L31.3206 2.85745L31.5206 4.50863L32.0624 1.62456L34.4758 2.26502L34.2758 4.70477L35.3096 1.54951L39.9863 2.31106L38.5867 6.49906L40.0643 4.99798L41.8338 5.51335L41.341 7.31464L42.8926 4.94895L45.7738 6.62515L44.937 8.10421L47.2514 5.61342L49.6638 7.1145L47.4974 10.4169L49.5658 9.01586L51.4123 10.8642L49.6398 12.7866L50.7975 12.1701L51.8312 13.2789L50.8705 14.4377L52.791 13.403L54.0716 15.4735L52.3721 16.7304L56.2621 15.6706L57.1978 18.1354L52.9629 19.8606L56.462 19.2942L57.1268 21.3397L55.0094 22.2273L58.3585 22.0272L58.5585 23.8015L54.3975 24.59L57.7217 24.6641L57.7707 27.0548L56.0961 27.326L58.9524 27.8924L58.7064 30.7024L54.8824 30.086L59.2403 31.487L58.9943 34.0748L55.4733 33.9027L58.4725 35.0365L57.8816 36.4665L56.0351 36.5406L57.5867 37.2801L56.1651 39.1074L54.5395 38.6371L57.1738 40.7076L55.7742 42.9262L52.2531 40.5845L54.7155 43.3695L52.721 45.3909L51.1214 44.2821L53.9037 47.1662L52.549 48.8174L51.5153 48.0528L50.2596 49.704L48.2652 48.1509L50.6045 51.6264L48.1842 53.5998L45.3029 49.656L47.8143 54.3393L45.8198 55.4241L44.1702 53.5998L45.2539 56.8021L43.3824 57.7878L42.2747 56.4569L40.4522 57.5416L39.1995 55.4491L38.9536 57.1994L35.6545 57.9139L35.1876 53.3776L35.1386 59.3419L32.1104 58.7995L32.0364 54.1412L31.4456 58.2822L29.5741 58.1821L29.3521 56.3087L29.1302 60.0794L26.3479 59.414L26.4709 57.0973L25.978 58.3792L23.1468 58.1331L23.4917 54.2633L21.9391 58.3812L19.5017 56.9272L20.4865 53.6989L18.8369 56.0155L17.2613 55.227L16.1036 56.1146L14.429 54.5615C14.429 54.6105 16.4975 51.3082 16.4975 51.3082L14.429 52.7372L11.9667 51.2831L13.4443 48.227L10.76 51.2831L9.18442 48.9165L11.7697 46.6738L8.64256 47.8317L7.97773 46.3306L6.54911 47.1932L5.31843 44.6284L6.67308 43.6177L4.53064 44.5543L3.69586 41.7693L8.32464 39.2065L4.72759 40.3383L4.33369 37.5283L6.2052 36.9359L4.87555 36.9609L4.11175 35.2597L3.24998 35.4818L3.19599 32.6498Z" fill="#FFCC00"/>
</svg>
