<svg width="55" height="55" viewBox="0 0 55 55" fill="none" xmlns="http://www.w3.org/2000/svg">
<path d="M27.0689 43.2691C25.2974 45.8419 23.5478 48.3937 21.7983 50.9236C21.0425 53.0251 19.12 53.3663 17.3274 53.7346C13.0363 54.6177 8.60908 54.603 4.32386 53.6915C3.18432 53.5062 2.09995 53.0704 1.14869 52.4156C0.760339 52.2004 0.461831 51.8531 0.307232 51.4365C0.152632 51.02 0.152165 50.5618 0.305914 50.145C0.446334 49.8297 0.643575 49.5431 0.887761 49.2994C6.80621 43.3104 12.7247 37.3285 18.6431 31.3535C18.6902 31.3066 18.7337 31.2561 18.7731 31.2024C13.9743 24.2184 9.16059 17.2354 4.30086 10.1874C3.97695 10.5336 3.67403 10.8578 3.37211 11.1601C3.28515 11.2758 3.17215 11.3693 3.04229 11.4331C2.91243 11.4969 2.76937 11.5291 2.62473 11.5272C2.48009 11.5252 2.33795 11.4891 2.20985 11.4219C2.08176 11.3546 1.97132 11.2581 1.8875 11.14C1.08765 10.3327 0.532849 9.31484 0.287422 8.20464C0.0419955 7.09445 0.116003 5.93736 0.500863 4.86755C0.827852 3.78351 1.45297 2.81345 2.30475 2.06825C3.15653 1.32305 4.2006 0.832797 5.3176 0.653532C6.26945 0.451507 7.25605 0.483545 8.19282 0.7469C9.1296 1.01025 9.9886 1.49707 10.6962 2.16562C11.344 2.74903 11.344 3.20336 10.7392 3.80879C10.3503 4.19807 9.96138 4.58735 9.59447 4.97663C9.57248 4.99864 9.57248 5.01966 9.52949 5.08471C15.362 10.9889 21.1934 16.8932 27.0909 22.8354C32.9443 16.9112 38.7978 11.009 44.7383 4.99764C44.3064 4.60837 43.8955 4.2411 43.5066 3.85182C42.8158 3.18134 42.8367 2.72702 43.5496 2.12258C44.3895 1.34713 45.4308 0.824375 46.554 0.614275C47.6772 0.404174 48.8369 0.515241 49.8999 0.934733C50.9852 1.29666 51.9433 1.96385 52.6598 2.85652C53.3762 3.74918 53.8206 4.82952 53.9398 5.96834C54.0847 6.90069 54.0095 7.85402 53.7203 8.75206C53.431 9.65011 52.9358 10.4679 52.2743 11.14C52.1885 11.2525 52.0783 11.3441 51.952 11.4078C51.8257 11.4715 51.6867 11.5057 51.5453 11.5078C51.4039 11.5099 51.2639 11.4799 51.1358 11.42C51.0077 11.3601 50.8948 11.2719 50.8057 11.1621C50.5057 10.8618 50.2058 10.5346 49.8769 10.1894C45.0172 17.2384 40.2214 24.2214 35.4047 31.2274C35.5127 31.3575 35.6206 31.4656 35.7286 31.5737C41.3878 37.2818 47.04 42.9972 52.6852 48.72C52.9231 48.9581 53.16 49.1743 53.398 49.4115C53.6003 49.5861 53.7611 49.8038 53.8686 50.0486C53.9762 50.2934 54.0277 50.5592 54.0194 50.8265C54.0112 51.0938 53.9434 51.3559 53.821 51.5936C53.6986 51.8313 53.5247 52.0387 53.312 52.2005C52.8695 52.5621 52.3742 52.8537 51.8434 53.0651C50.1246 53.737 48.3079 54.124 46.4648 54.2109C43.3204 54.5251 40.1469 54.372 37.0473 53.7566C36.0808 53.5326 35.1345 53.229 34.218 52.8489C33.8277 52.7036 33.4732 52.4758 33.1787 52.181C32.8842 51.8862 32.6567 51.5314 32.5115 51.1407C32.3736 50.8569 32.206 50.5885 32.0116 50.3401C30.46 48.0905 28.9044 45.8419 27.3708 43.5953C27.2541 43.5027 27.1522 43.3927 27.0689 43.2691ZM28.1686 41.6679C29.8961 44.1757 31.6247 46.6845 33.2883 49.0842C34.0208 48.7429 34.7706 48.4399 35.5347 48.1766C39.5148 47.127 43.6655 46.8919 47.7385 47.4851C48.1494 47.5281 48.5812 47.5932 49.1211 47.6792C44.1314 42.6416 39.2497 37.6901 34.347 32.7385C32.2525 35.7447 30.2221 38.7068 28.1706 41.6689L28.1686 41.6679ZM5.03667 47.6982C7.57365 47.2481 10.1544 47.0957 12.7267 47.2439C15.5349 47.395 18.3252 47.6552 20.8245 49.1253C20.8465 49.0822 20.8895 49.0602 20.9105 49.0172C22.5301 46.6605 24.1507 44.2818 25.7922 41.9251C25.9862 41.6659 25.8782 41.5138 25.7492 41.2977C23.8497 38.5297 21.9502 35.7837 20.0507 33.0167C19.9857 32.9307 19.8998 32.8226 19.8348 32.7355C14.9081 37.7341 10.0264 42.6636 5.03667 47.6982ZM25.8162 24.1314C19.9411 18.1878 14.0873 12.2719 8.25483 6.38364C7.38605 7.26927 6.52728 8.11288 5.66251 8.99951C10.4612 15.9615 15.253 22.9455 19.9837 29.7994C21.9282 27.8961 23.8507 26.0367 25.8162 24.1344V24.1314ZM28.3216 24.1534C30.287 26.0547 32.2095 27.9151 34.154 29.8184C38.9058 22.9215 43.7225 15.9375 48.4963 8.99651C47.6105 8.10987 46.7467 7.26727 45.8829 6.40165C40.0725 12.2859 34.24 18.1881 28.3216 24.1564V24.1534ZM27.0899 25.6234C25.1454 27.5048 23.1369 29.4502 21.1284 31.4176C23.1369 34.3367 25.1024 37.1907 27.1119 40.0878C29.1203 37.1687 31.0858 34.3146 33.0733 31.4176C31.0218 29.4532 29.0124 27.4838 27.0899 25.6264V25.6234ZM2.03446 50.6854C2.03115 50.7509 2.03858 50.8164 2.05645 50.8795C2.30569 51.0597 2.57388 51.2121 2.85624 51.3338C3.5189 51.5922 4.19704 51.8087 4.88671 51.9823C8.24905 52.6732 11.7047 52.7828 15.104 52.3065C16.3799 52.0857 17.6418 51.79 18.883 51.4209C19.2856 51.2527 19.6693 51.0423 20.0277 50.7935C19.7405 50.5892 19.4373 50.4085 19.121 50.2531C18.4982 49.9922 17.8552 49.7824 17.1985 49.6256C14.1812 48.9951 11.0858 48.8264 8.01789 49.1253C6.38828 49.2037 4.77941 49.5244 3.24414 50.0769C2.81126 50.2531 2.42236 50.4912 2.03446 50.6854ZM52.1473 50.8795C52.1507 50.8209 52.1432 50.7623 52.1253 50.7064C51.8786 50.5343 51.6185 50.3824 51.3475 50.2521C50.7247 49.9912 50.0818 49.7814 49.425 49.6246C46.4077 48.9941 43.3123 48.8254 40.2444 49.1243C38.6286 49.2006 37.0335 49.5215 35.5137 50.0759C35.0818 50.2491 34.6929 50.4872 34.174 50.7464C34.387 50.9287 34.6186 51.088 34.8648 51.2218C35.7333 51.555 36.6206 51.8367 37.5221 52.0654C40.4986 52.6197 43.5392 52.7434 46.5508 52.4326C48.1044 52.3489 49.6351 52.0206 51.0866 51.4599C51.4555 51.2908 51.8014 51.0747 52.1463 50.8805L52.1473 50.8795Z" fill="#FFCC00"/>
</svg>
