<svg width="59" height="59" viewBox="0 0 59 59" fill="none" xmlns="http://www.w3.org/2000/svg">
<path d="M58.3542 29.5786C58.3568 35.3315 56.6547 40.956 53.4633 45.7404C50.2719 50.5249 45.7346 54.2544 40.4253 56.4571C35.116 58.6599 29.2733 59.237 23.6363 58.1154C17.9994 56.9937 12.8213 54.2238 8.75734 50.1559C4.69333 46.0881 1.92592 40.9051 0.80519 35.2626C-0.315539 29.6202 0.260767 23.7717 2.46121 18.4572C4.66164 13.1426 8.38735 8.60071 13.167 5.40602C17.9467 2.21134 23.5655 0.507406 29.3128 0.509781C33.1276 0.505832 36.9057 1.25502 40.4309 2.71445C43.9561 4.17388 47.1591 6.31491 49.8566 9.01497C52.5541 11.715 54.6932 14.9211 56.1513 18.4497C57.6094 21.9783 58.358 25.7601 58.3542 29.5786ZM13.7019 22.1733C13.5765 22.2725 13.4631 22.386 13.364 22.5115C11.4155 25.0804 9.49402 27.6292 7.57152 30.2311C7.43242 30.4362 7.37665 30.6867 7.41557 30.9316C8.2823 34.5524 9.45557 38.0927 10.9226 41.5142C10.9707 41.6487 11.054 41.768 11.1637 41.8595C11.2734 41.951 11.4056 42.0114 11.5465 42.0345C14.4817 42.7631 17.4169 43.4906 20.3522 44.2451C20.4884 44.295 20.6377 44.2964 20.7748 44.249C20.9119 44.2016 21.0285 44.1083 21.105 43.9849C23.1314 41.333 25.1569 38.7071 27.2094 36.0793C27.3036 35.9809 27.3663 35.8567 27.3895 35.7224C27.4126 35.5881 27.3952 35.45 27.3393 35.3257C26.1706 31.8673 25.0279 28.4358 23.8842 24.9773C23.8543 24.828 23.7777 24.6922 23.6656 24.5893C23.5534 24.4864 23.4116 24.4218 23.2604 24.4049C21.161 23.9366 19.0525 23.4432 16.9481 22.9489C15.9353 22.6887 14.8706 22.4545 13.7019 22.1683V22.1733ZM34.4045 36.7027V36.5726H29.0059C28.8798 36.5633 28.7534 36.5872 28.6394 36.642C28.5254 36.6968 28.4277 36.7805 28.3561 36.8848C26.2996 39.5377 24.2741 42.1896 22.1957 44.8415C22.0948 44.9328 22.033 45.0596 22.0233 45.1953C22.0136 45.3311 22.0568 45.4654 22.1437 45.5701C23.6243 47.7797 25.0529 49.9902 26.5595 52.1998C26.6488 52.3101 26.7591 52.4014 26.8841 52.4685C27.0091 52.5355 27.1462 52.5768 27.2873 52.5901C28.456 52.7202 29.6247 52.8243 30.7944 52.8763C33.1153 52.9769 35.4403 52.8286 37.7296 52.434C37.9015 52.4082 38.0632 52.3363 38.1975 52.2258C40.5002 49.9913 42.5238 47.4856 44.2239 44.7635C44.2691 44.6699 44.2926 44.5673 44.2926 44.4633C44.2926 44.3593 44.2691 44.2567 44.2239 44.1631C42.9512 41.7193 41.6526 39.3006 40.3799 36.8578C40.3383 36.744 40.2586 36.6481 40.1544 36.5864C40.0501 36.5247 39.9277 36.5011 39.8081 36.5196C37.9885 36.5986 36.197 36.6507 34.4045 36.7027ZM13.0261 12.3663C13.0521 12.3923 13.1041 12.3923 13.1261 12.4183C13.386 15.0962 13.6719 17.7742 13.9309 20.4531C13.9568 20.7653 14.1388 20.8173 14.3727 20.8694C17.5159 21.6229 20.6591 22.3514 23.7763 23.131C23.9091 23.1636 24.048 23.1616 24.1798 23.1251C24.3116 23.0887 24.4318 23.0191 24.5291 22.9228C27.2823 20.9214 30.0356 18.92 32.8149 16.9426C33.0017 16.8371 33.1487 16.6731 33.2333 16.4759C33.3178 16.2786 33.3352 16.0589 33.2828 15.8508C32.8669 13.3029 32.504 10.7281 32.1141 8.18028C32.1087 8.03327 32.0547 7.89221 31.9607 7.7792C31.8666 7.6662 31.7377 7.58763 31.5942 7.55583C29.0332 6.64322 26.3768 6.02514 23.6763 5.71351C22.9871 5.53697 22.2597 5.5825 21.5978 5.8436C18.5713 7.36201 15.7946 9.33489 13.364 11.6938C13.2062 11.8922 13.0912 12.1212 13.0261 12.3663ZM45.4956 43.6197C45.566 43.6276 45.6372 43.6187 45.7035 43.5937C47.9889 42.8141 50.2493 42.0335 52.5087 41.228C52.6007 41.1851 52.6828 41.1237 52.7498 41.0476C52.8169 40.9715 52.8676 40.8823 52.8986 40.7856C54.157 37.3999 55.1556 33.923 55.8858 30.3852C55.9132 30.1993 55.8861 30.0095 55.8079 29.8388C54.6392 27.5251 53.4445 25.2105 52.2488 22.8708C52.1188 22.5846 51.9629 22.5586 51.6769 22.6366C49.4435 23.2611 47.2091 23.8585 44.9497 24.4309C44.8303 24.4513 44.7197 24.5067 44.6318 24.59C44.5438 24.6734 44.4826 24.781 44.4558 24.8993C43.4431 28.4098 42.4294 31.8933 41.4166 35.4068C41.3634 35.6517 41.3907 35.9073 41.4946 36.1353C42.0945 37.3051 42.7153 38.475 43.3391 39.6458C44.0929 40.9928 44.7948 42.2937 45.4956 43.6197ZM40.6908 5.86562C38.4191 6.04648 36.1868 6.56347 34.0666 7.39972C33.4167 7.63389 33.4427 7.6599 33.5467 8.36141C33.9366 10.9092 34.3255 13.4581 34.6894 15.9799C34.7033 16.1332 34.7559 16.2806 34.8423 16.408C34.9287 16.5354 35.046 16.6388 35.1833 16.7084C38.31 18.5457 41.2657 20.66 44.015 23.0259C44.1024 23.0933 44.204 23.14 44.312 23.1625C44.42 23.185 44.5317 23.1828 44.6388 23.156C46.8722 22.5556 49.0806 21.9551 51.314 21.3617C51.626 21.2837 51.7039 21.1536 51.6779 20.8413C51.4283 18.1794 50.915 15.549 50.1453 12.9887C50.092 12.803 49.9938 12.6332 49.8594 12.4944C47.3412 9.87831 44.421 7.68234 41.2097 5.98971C40.9758 5.91365 40.7678 5.89164 40.6908 5.86562ZM8.84419 47.4434C9.15611 45.9613 9.46803 44.4793 9.75295 42.9972C9.80608 42.7182 9.77904 42.4299 9.67497 42.1656C8.15913 38.5834 6.92601 34.8878 5.98694 31.1127C5.92491 30.8956 5.80701 30.6985 5.64503 30.5413C4.47634 29.4495 3.28165 28.3828 2.08596 27.317C2.00798 27.2389 1.87802 27.1869 1.74805 27.0828C1.72206 27.5251 1.67007 27.9144 1.64808 28.3307C1.3391 34.8314 3.33591 41.2321 7.2856 46.4017C7.68437 46.9026 8.22914 47.2667 8.84419 47.4434ZM20.6411 55.8394C23.9922 57.972 36.122 57.5296 39.863 55.1629C39.3952 54.7987 38.9283 54.4094 38.4344 54.0451C38.2481 53.9031 38.0187 53.8296 37.7846 53.837C34.7329 54.3005 31.6359 54.3879 28.563 54.0972C27.3454 53.9385 26.1076 54.0722 24.952 54.4875C23.5203 55.0078 22.0917 55.3981 20.6411 55.8394ZM21.9617 2.87548C16.1274 4.52926 10.981 8.02127 7.2856 12.8336C8.76621 12.2612 10.1948 11.7418 11.5975 11.1694C11.8704 11.0633 12.1246 10.9139 12.3503 10.7271C14.7897 8.35995 17.5753 6.3788 20.6111 4.85189C20.9735 4.6493 21.284 4.3654 21.5183 4.02249C21.7527 3.67957 21.9045 3.28697 21.9617 2.87548ZM56.6656 33.7646C55.7829 36.4946 54.9251 39.1985 54.0423 41.9285C55.3834 39.3802 56.2711 36.6176 56.6656 33.7646Z" fill="#FFCC00"/>
</svg>
