<svg width="57" height="48" viewBox="0 0 57 48" fill="none" xmlns="http://www.w3.org/2000/svg">
<path d="M28.4887 47.8231H4.41197C3.50399 47.8955 2.59859 47.6547 1.8462 47.1408C1.09382 46.6269 0.539753 45.8708 0.276058 44.998C0.151649 44.5809 0.090979 44.1474 0.0961053 43.7121V12.4407C0.077286 11.9238 0.160801 11.4083 0.341841 10.9239C0.522881 10.4394 0.797871 9.99558 1.15098 9.61795C1.50408 9.24031 1.92832 8.93633 2.39928 8.72349C2.87024 8.51065 3.3786 8.39317 3.89511 8.37781C6.90132 8.27774 9.90753 8.32677 12.9127 8.32677C13.9665 8.32677 13.9665 8.32677 14.1974 7.32605C14.4033 6.47745 14.5823 5.62483 14.8142 4.78023C15.0314 3.54947 15.6885 2.43983 16.6629 1.65836C17.6374 0.876889 18.8625 0.476958 20.1098 0.533186C25.7084 0.507167 31.3092 0.507167 36.9124 0.533186C38.1689 0.480077 39.4018 0.886736 40.3806 1.67717C41.3594 2.46761 42.0172 3.58774 42.231 4.82826C42.462 5.82898 42.7449 6.8297 42.9509 7.86244C43.0278 8.24771 43.2078 8.35079 43.5677 8.35079H52.5343C53.1835 8.31607 53.8322 8.42792 54.4323 8.67805C55.0324 8.92818 55.5687 9.3102 56.0014 9.79582C56.6477 10.5333 56.9969 11.4849 56.9812 12.4657V43.6881C57.0041 44.2536 56.908 44.8176 56.699 45.3435C56.4901 45.8693 56.173 46.3454 55.7684 46.7407C55.3638 47.136 54.8807 47.4417 54.3504 47.638C53.8201 47.8343 53.2545 47.9168 52.6903 47.8801C44.5958 47.8534 36.5285 47.8344 28.4887 47.8231ZM28.4887 45.1742H52.4054C52.7166 45.179 53.0272 45.1454 53.3301 45.0741C53.6171 44.9827 53.8694 44.8056 54.0531 44.5667C54.2368 44.3277 54.3431 44.0383 54.3579 43.7371C54.3319 43.4289 54.3069 43.1197 54.3069 42.8115V12.6459C54.3207 12.3215 54.2683 11.9976 54.1529 11.6942C54.0027 11.4111 53.7697 11.1806 53.4851 11.0336C53.2005 10.8866 52.8779 10.8301 52.5603 10.8716H42.436C41.3313 10.8716 40.9974 10.5884 40.7364 9.50862C40.3855 7.99453 40.0216 6.49946 39.6357 4.98237C39.5535 4.70009 39.4323 4.43065 39.2758 4.1818C38.9894 3.77729 38.6002 3.45675 38.1484 3.25336C37.6967 3.04997 37.1989 2.97112 36.7065 3.02497H20.3418C20.1108 3.02497 19.8789 3.05099 19.622 3.07601C19.0944 3.12246 18.595 3.33419 18.1945 3.6811C17.7941 4.02802 17.5131 4.49246 17.3916 5.00839C17.0317 6.44842 16.6718 7.91047 16.3378 9.35451C16.0299 10.5894 15.747 10.8206 14.4383 10.8206H4.64391C3.20529 10.8206 2.71742 11.3089 2.71742 12.7489V43.1467C2.71742 44.6128 3.23128 45.1271 4.66991 45.1271C12.5828 45.1782 20.5207 45.1782 28.4887 45.1782V45.1742Z" fill="#FFCC00"/>
<path d="M28.5114 15.8613C30.9148 15.8588 33.2649 16.5704 35.2639 17.906C37.2629 19.2416 38.8209 21.141 39.7405 23.3638C40.66 25.5865 40.8998 28.0324 40.4293 30.3916C39.9589 32.7508 38.7994 34.9172 37.0978 36.6162C35.3963 38.3152 33.2292 39.4705 30.8711 39.9355C28.513 40.4006 26.0701 40.1546 23.8518 39.2286C21.6336 38.3027 19.7398 36.7384 18.4105 34.7342C17.0812 32.7299 16.3761 30.3758 16.3846 27.97C16.4108 24.7615 17.6978 21.6923 19.9672 19.4263C22.2366 17.1603 25.306 15.8796 28.5114 15.8613ZM28.5114 37.5669C30.4002 37.5643 32.2457 37.0008 33.8144 35.9478C35.3831 34.8947 36.6044 33.3995 37.3237 31.6513C38.0429 29.9031 38.2279 27.9806 37.855 26.1272C37.4822 24.2738 36.5684 22.5727 35.2292 21.2394C33.8901 19.9061 32.1859 19.0005 30.3323 18.6372C28.4787 18.2739 26.5591 18.4693 24.8165 19.1987C23.0739 19.928 21.5867 21.1584 20.5431 22.7343C19.4995 24.3101 18.9464 26.1604 18.9539 28.0511C18.9671 30.5796 19.9799 33 21.7709 34.7832C23.5619 36.5663 25.9853 37.5672 28.5114 37.5669Z" fill="#FFCC00"/>
<path d="M48.5254 14.3952H49.7361C50.1425 14.3933 50.5451 14.473 50.9203 14.6294C51.2954 14.7858 51.6355 15.0158 51.9204 15.3059C52.2054 15.5959 52.4294 15.9402 52.5793 16.3183C52.7292 16.6964 52.802 17.1007 52.7933 17.5074V19.693C52.8379 20.459 52.5799 21.2119 52.0749 21.7893C51.57 22.3666 50.8585 22.7222 50.094 22.7792C49.0423 22.8734 47.9839 22.8647 46.9338 22.7531C46.2114 22.6706 45.5454 22.3223 45.0651 21.7758C44.5847 21.2294 44.3244 20.5238 44.3345 19.796V17.3783C44.3398 16.5951 44.6477 15.8443 45.1938 15.2833C45.7399 14.7223 46.4817 14.3947 47.2638 14.3691C47.7006 14.3691 48.1115 14.3952 48.5224 14.3952H48.5254ZM48.5514 16.967H47.5747C47.1118 16.967 46.9068 17.1732 46.9328 17.6355C46.9588 18.304 46.9588 18.9474 46.9328 19.6159C46.9328 20.0272 47.0868 20.2333 47.5237 20.2333H49.5531C50.016 20.2333 50.195 19.9762 50.221 19.5388V17.5584C50.221 17.1211 50.015 16.967 49.6301 16.967H48.5514Z" fill="#FFCC00"/>
<path d="M21.1377 27.7173C21.2395 25.8486 22.0423 24.0872 23.3856 22.7855C24.7289 21.4838 26.5136 20.7376 28.3828 20.6963C28.7209 20.674 29.0548 20.781 29.3171 20.9958C29.5793 21.2105 29.7503 21.517 29.7954 21.8531C29.8226 22.1933 29.7169 22.5308 29.5007 22.7947C29.2844 23.0586 28.9744 23.2283 28.6357 23.2681C27.9192 23.361 27.2136 23.5246 26.5293 23.7564C25.6933 24.1161 24.9832 24.7165 24.4892 25.4814C23.9951 26.2462 23.7396 27.1409 23.755 28.0515C23.752 28.3512 23.645 28.6405 23.4524 28.87C23.2599 29.0995 22.9936 29.2549 22.6993 29.3096C22.4049 29.3643 22.1007 29.315 21.8386 29.17C21.5766 29.025 21.373 28.7935 21.2627 28.5149C21.1887 28.2567 21.1887 27.9745 21.1377 27.7173Z" fill="#FFCC00"/>
</svg>
