<svg width="159" height="159" viewBox="0 0 159 159" fill="none" xmlns="http://www.w3.org/2000/svg">
<path d="M111.686 14.1698V3.82178C111.661 3.33615 111.734 2.85048 111.902 2.39384C112.069 1.9372 112.326 1.51897 112.659 1.1642C112.991 0.809421 113.392 0.525385 113.837 0.329089C114.282 0.132793 114.762 0.028272 115.248 0.0217821C115.741 0.0134236 116.23 0.105963 116.686 0.293713C117.142 0.481463 117.555 0.760457 117.899 1.11355C118.243 1.46664 118.511 1.88637 118.687 2.34694C118.863 2.80752 118.943 3.2992 118.922 3.79178V14.2098H119.869C126.033 14.2098 132.194 14.1888 138.356 14.2178C141.754 14.1416 145.116 14.9393 148.117 16.5347C151.119 18.13 153.661 20.4694 155.499 23.3288C157.689 26.4796 158.854 30.2289 158.835 34.0658C158.859 69.0438 158.859 104.023 158.835 139.005C158.747 144.12 156.721 149.011 153.167 152.69C149.613 156.369 144.795 158.563 139.686 158.829C139.22 158.85 138.755 158.856 138.286 158.856C99.0593 158.856 59.8327 158.856 20.606 158.856C17.2346 158.941 13.8968 158.167 10.907 156.607C7.91726 155.046 5.37377 152.75 3.516 149.936C1.18411 146.601 -0.0339289 142.615 0.0360034 138.547C0.0440034 119.773 0.0440034 101 0.0360034 82.2298C0.0360034 66.4358 0.129004 50.6408 0.00100354 34.8488C-0.0458919 30.114 1.55207 25.5098 4.5221 21.8221C7.49212 18.1345 11.65 15.592 16.286 14.6288C17.7375 14.3623 19.2102 14.2284 20.686 14.2288C26.613 14.1858 32.543 14.2098 38.473 14.2098H39.386V3.76078C39.3649 3.28759 39.4375 2.8149 39.5994 2.36979C39.7614 1.92468 40.0096 1.5159 40.3298 1.16689C40.65 0.817872 41.0359 0.535479 41.4655 0.335891C41.895 0.136303 42.3598 0.0234442 42.833 0.00378245C43.333 -0.0190906 43.8323 0.0619621 44.2993 0.241822C44.7664 0.421682 45.1911 0.69644 45.5466 1.04874C45.9021 1.40105 46.1807 1.82324 46.3647 2.28867C46.5488 2.75409 46.6344 3.25262 46.616 3.75278C46.616 6.91078 46.616 10.0694 46.616 13.2288V14.1708L111.686 14.1698ZM7.238 59.9868V60.7738C7.238 86.7438 7.24067 112.715 7.246 138.687C7.24492 139.463 7.31893 140.237 7.467 140.999C8.767 147.499 13.974 151.654 20.819 151.654C59.9177 151.659 99.0177 151.657 138.119 151.649C138.974 151.666 139.828 151.609 140.673 151.479C143.767 151.015 146.585 149.439 148.599 147.045C150.614 144.652 151.686 141.606 151.615 138.479C151.62 112.612 151.62 86.7454 151.615 60.8788V59.9848L7.238 59.9868ZM118.922 21.4288V22.4128C118.922 25.5461 118.922 28.6794 118.922 31.8128C118.943 32.3057 118.863 32.7976 118.686 33.258C118.508 33.7185 118.238 34.1374 117.892 34.4888C117.383 35.0102 116.728 35.3657 116.014 35.5085C115.299 35.6514 114.558 35.575 113.888 35.2893C113.218 35.0037 112.649 34.5221 112.257 33.9078C111.866 33.2935 111.668 32.5751 111.692 31.8468C111.676 28.7158 111.687 25.5818 111.687 22.4468V21.4758H46.616V22.4258C46.616 25.5328 46.624 28.6408 46.611 31.7478C46.6417 32.2408 46.5711 32.7348 46.4036 33.1995C46.2361 33.6641 45.9752 34.0895 45.6369 34.4495C45.2987 34.8095 44.8903 35.0963 44.437 35.2924C43.9836 35.4885 43.4949 35.5897 43.001 35.5897C42.5071 35.5897 42.0184 35.4885 41.565 35.2924C41.1117 35.0963 40.7033 34.8095 40.3651 34.4495C40.0268 34.0895 39.7659 33.6641 39.5984 33.1995C39.4309 32.7348 39.3603 32.2408 39.391 31.7478C39.3857 28.6145 39.3857 25.4811 39.391 22.3478V21.4568C39.072 21.4438 38.819 21.4218 38.564 21.4218C32.61 21.4218 26.6553 21.4234 20.7 21.4268C19.9496 21.4147 19.1992 21.4575 18.455 21.5548C15.3176 21.9861 12.446 23.549 10.3803 25.9493C8.31452 28.3497 7.19703 31.4222 7.238 34.5888C7.238 40.3348 7.238 46.0821 7.238 51.8308V52.6928H151.561C151.58 52.4798 151.612 52.3068 151.612 52.1318C151.612 46.1248 151.633 40.1178 151.601 34.1108C151.603 31.4736 150.745 28.9077 149.156 26.8028C147.915 25.0668 146.263 23.6662 144.347 22.7268C142.431 21.7874 140.311 21.3386 138.179 21.4208C132.068 21.4368 125.957 21.4258 119.849 21.4258L118.922 21.4288Z" fill="#FFCC00"/>
</svg>
