<svg width="159" height="159" viewBox="0 0 159 159" fill="none" xmlns="http://www.w3.org/2000/svg">
<mask id="mask0_271_187" style="mask-type:luminance" maskUnits="userSpaceOnUse" x="0" y="0" width="159" height="159">
<path d="M0 158.856H158.848V0H0V158.856Z" fill="white"/>
</mask>
<g mask="url(#mask0_271_187)">
<path d="M111.678 14.1649V3.8169C111.653 3.33127 111.727 2.8456 111.894 2.38896C112.061 1.93232 112.318 1.51409 112.651 1.15931C112.984 0.804538 113.384 0.520502 113.829 0.324206C114.274 0.12791 114.754 0.0233892 115.24 0.0168993C115.733 0.00854081 116.223 0.10108 116.678 0.28883C117.134 0.47658 117.547 0.755574 117.891 1.10867C118.235 1.46176 118.504 1.88149 118.679 2.34206C118.855 2.80263 118.935 3.29432 118.914 3.7869V14.2049H119.861C126.025 14.2049 132.186 14.1839 138.348 14.2129C141.747 14.1367 145.108 14.9345 148.109 16.5298C151.111 18.1251 153.653 20.4645 155.491 23.3239C157.681 26.4747 158.846 30.224 158.827 34.0609C158.851 69.0389 158.851 104.019 158.827 139C158.739 144.115 156.713 149.006 153.159 152.685C149.605 156.365 144.787 158.558 139.678 158.824C139.212 158.845 138.747 158.851 138.278 158.851C99.0515 158.851 59.8249 158.851 20.5982 158.851C17.2267 158.936 13.889 158.162 10.8992 156.602C7.90945 155.041 5.36596 152.746 3.50819 149.931C1.1763 146.596 -0.0417414 142.61 0.0281909 138.542C0.0361909 119.768 0.0361909 100.996 0.0281909 82.2249C0.0281909 66.4309 0.121191 50.6359 -0.00680896 34.8439C-0.0537044 30.1092 1.54426 25.5049 4.51428 21.8173C7.4843 18.1296 11.6422 15.5871 16.2782 14.6239C17.7297 14.3574 19.2024 14.2235 20.6782 14.2239C26.6052 14.1809 32.5352 14.2049 38.4652 14.2049H39.3782V3.7559C39.3571 3.28271 39.4296 2.81002 39.5916 2.36491C39.7535 1.9198 40.0017 1.51102 40.322 1.16201C40.6422 0.81299 41.0281 0.530596 41.4577 0.331008C41.8872 0.13142 42.3519 0.0185614 42.8252 -0.00110036C43.3252 -0.0239734 43.8245 0.0570793 44.2915 0.236939C44.7586 0.416799 45.1833 0.691558 45.5388 1.04386C45.8943 1.39617 46.1729 1.81836 46.3569 2.28378C46.541 2.7492 46.6266 3.24774 46.6082 3.7479C46.6082 6.9059 46.6082 10.0646 46.6082 13.2239V14.1659L111.678 14.1649ZM7.23019 59.9819V60.7689C7.23019 86.7389 7.23286 112.71 7.23819 138.682C7.2371 139.458 7.31112 140.232 7.45919 140.994C8.75919 147.494 13.9662 151.649 20.8112 151.649C59.9099 151.654 99.0099 151.653 138.111 151.644C138.966 151.661 139.82 151.604 140.665 151.474C143.759 151.01 146.577 149.434 148.591 147.04C150.606 144.647 151.678 141.601 151.607 138.474C151.613 112.607 151.613 86.7406 151.607 60.8739V59.9799L7.23019 59.9819ZM118.914 21.4239V22.4079C118.914 25.5412 118.914 28.6746 118.914 31.8079C118.936 32.3008 118.855 32.7928 118.678 33.2532C118.501 33.7136 118.23 34.1325 117.884 34.4839C117.375 35.0053 116.721 35.3608 116.006 35.5036C115.291 35.6465 114.55 35.5701 113.88 35.2844C113.21 34.9988 112.641 34.5172 112.25 33.9029C111.858 33.2886 111.661 32.5702 111.684 31.8419C111.668 28.7109 111.679 25.5769 111.679 22.4419V21.4709H46.6082V22.4209C46.6082 25.5279 46.6162 28.6359 46.6032 31.7429C46.6339 32.2359 46.5633 32.7299 46.3958 33.1946C46.2283 33.6592 45.9674 34.0847 45.6291 34.4446C45.2909 34.8046 44.8825 35.0915 44.4292 35.2876C43.9758 35.4837 43.4871 35.5848 42.9932 35.5848C42.4993 35.5848 42.0106 35.4837 41.5572 35.2876C41.1039 35.0915 40.6955 34.8046 40.3573 34.4446C40.019 34.0847 39.7581 33.6592 39.5906 33.1946C39.4231 32.7299 39.3525 32.2359 39.3832 31.7429C39.3779 28.6096 39.3779 25.4762 39.3832 22.3429V21.4519C39.0642 21.4389 38.8112 21.4169 38.5562 21.4169C32.6022 21.4169 26.6475 21.4186 20.6922 21.4219C19.9417 21.4098 19.1914 21.4526 18.4472 21.5499C15.3098 21.9812 12.4382 23.5441 10.3725 25.9445C8.3067 28.3448 7.18922 31.4173 7.23019 34.5839C7.23019 40.3299 7.23019 46.0772 7.23019 51.8259V52.6879H151.553C151.572 52.4749 151.604 52.3019 151.604 52.1269C151.604 46.1199 151.625 40.1129 151.593 34.1059C151.595 31.4687 150.737 28.9029 149.148 26.7979C147.907 25.0619 146.255 23.6613 144.339 22.7219C142.423 21.7825 140.303 21.3337 138.171 21.4159C132.06 21.4319 125.949 21.4209 119.841 21.4209L118.914 21.4239Z" fill="#FFCC00"/>
<path d="M60.7705 26.2769H63.6929L68.02 39.0122L72.3164 26.2769H75.208V41.3398H73.27V32.4497C73.27 32.1421 73.2769 31.6328 73.2905 30.9219C73.3042 30.2109 73.311 29.4487 73.311 28.6353L69.0146 41.3398H66.9946L62.6675 28.6353V29.0967C62.6675 29.4658 62.6743 30.0298 62.688 30.7886C62.7085 31.5405 62.7188 32.0942 62.7188 32.4497V41.3398H60.7705V26.2769ZM86.0464 35.167L83.7598 28.5122L81.3296 35.167H86.0464ZM82.6934 26.2769H85.0005L90.4658 41.3398H88.2305L86.7026 36.8281H80.7451L79.1147 41.3398H77.0229L82.6934 26.2769ZM89.5942 26.2769H91.9731L96.3003 33.5161L100.627 26.2769H103.017L97.3257 35.2695V41.3398H95.2852V35.2695L89.5942 26.2769Z" fill="#FFCC00"/>
<path d="M75.7666 103.397C75.7666 114.356 73.5869 123.075 69.2275 129.554C64.8682 136.002 59.0103 139.226 51.6538 139.226C43.6919 139.226 37.4556 135.972 32.9448 129.463C28.4644 122.984 26.2241 113.933 26.2241 102.308C26.2241 91.3184 28.4644 82.6299 32.9448 76.2422C37.4556 69.8242 43.5405 66.6152 51.1997 66.6152C58.9194 66.6152 64.9438 69.8696 69.2729 76.3784C73.6021 82.8872 75.7666 91.8936 75.7666 103.397ZM57.0576 103.261C57.0576 89.729 55.0142 82.9629 50.9272 82.9629C46.8706 82.9629 44.8423 89.0176 44.8423 101.127C44.8423 115.598 46.8252 122.833 50.791 122.833C52.9404 122.833 54.5146 121.259 55.5137 118.11C56.543 114.932 57.0576 109.982 57.0576 103.261ZM83.9404 133.777L86.1655 117.157C91.7661 120.396 96.7764 122.016 101.196 122.016C104.072 122.016 106.403 121.289 108.189 119.836C110.006 118.383 110.914 116.491 110.914 114.16C110.914 111.677 109.93 109.755 107.962 108.393C105.995 107 103.225 106.304 99.6523 106.304C95.7471 106.304 91.645 107.121 87.3462 108.756L92.7954 67.8867H127.67V84.3706H107.69L106.191 92.2266C107.493 92.1357 108.553 92.0903 109.37 92.0903C115.122 92.0903 119.981 94.1792 123.947 98.3569C127.882 102.474 129.85 107.621 129.85 113.796C129.85 121.062 127.307 127.117 122.221 131.96C117.196 136.804 110.854 139.226 103.194 139.226C96.6553 139.226 90.2373 137.41 83.9404 133.777Z" fill="#FFCC00"/>
</g>
</svg>
