<svg width="160" height="168" viewBox="0 0 160 168" fill="none" xmlns="http://www.w3.org/2000/svg">
<mask id="mask0_22_1559" style="mask-type:luminance" maskUnits="userSpaceOnUse" x="0" y="0" width="160" height="159">
<path d="M0.713867 158.856H159.562V0H0.713867V158.856Z" fill="white"/>
</mask>
<g mask="url(#mask0_22_1559)">
<path d="M112.392 14.1649V3.8169C112.367 3.33127 112.44 2.8456 112.608 2.38896C112.775 1.93232 113.032 1.51409 113.365 1.15931C113.697 0.804538 114.098 0.520502 114.543 0.324206C114.988 0.12791 115.468 0.0233892 115.954 0.0168993C116.447 0.00854081 116.936 0.10108 117.392 0.28883C117.848 0.47658 118.261 0.755574 118.605 1.10867C118.949 1.46176 119.217 1.88149 119.393 2.34206C119.569 2.80263 119.649 3.29432 119.628 3.7869V14.2049H120.575C126.739 14.2049 132.9 14.1839 139.062 14.2129C142.461 14.1367 145.822 14.9345 148.823 16.5298C151.825 18.1251 154.367 20.4645 156.205 23.3239C158.395 26.4747 159.56 30.224 159.541 34.0609C159.565 69.0389 159.565 104.019 159.541 139C159.453 144.115 157.427 149.006 153.873 152.685C150.319 156.365 145.501 158.558 140.392 158.824C139.926 158.845 139.461 158.851 138.992 158.851C99.7654 158.851 60.5387 158.851 21.3121 158.851C17.9406 158.936 14.6029 158.162 11.6131 156.602C8.62332 155.041 6.07982 152.746 4.22206 149.931C1.89016 146.596 0.672126 142.61 0.742058 138.542C0.750058 119.768 0.750058 100.996 0.742058 82.2249C0.742058 66.4309 0.835058 50.6359 0.707058 34.8439C0.660163 30.1092 2.25813 25.5049 5.22815 21.8173C8.19817 18.1296 12.3561 15.5871 16.9921 14.6239C18.4436 14.3574 19.9163 14.2235 21.3921 14.2239C27.3191 14.1809 33.2491 14.2049 39.1791 14.2049H40.0921V3.7559C40.071 3.28271 40.1435 2.81002 40.3055 2.36491C40.4674 1.9198 40.7156 1.51102 41.0358 1.16201C41.356 0.81299 41.742 0.530596 42.1715 0.331008C42.6011 0.13142 43.0658 0.0185614 43.5391 -0.00110036C44.039 -0.0239734 44.5383 0.0570793 45.0054 0.236939C45.4724 0.416799 45.8971 0.691558 46.2526 1.04386C46.6081 1.39617 46.8867 1.81836 47.0708 2.28378C47.2549 2.7492 47.3404 3.24774 47.3221 3.7479C47.3221 6.9059 47.3221 10.0646 47.3221 13.2239V14.1659L112.392 14.1649ZM7.94406 59.9819V60.7689C7.94406 86.7389 7.94672 112.71 7.95206 138.682C7.95097 139.458 8.02498 140.232 8.17306 140.994C9.47306 147.494 14.6801 151.649 21.5251 151.649C60.6237 151.654 99.7237 151.653 138.825 151.644C139.68 151.661 140.534 151.604 141.379 151.474C144.473 151.01 147.291 149.434 149.305 147.04C151.32 144.647 152.392 141.601 152.321 138.474C152.326 112.607 152.326 86.7406 152.321 60.8739V59.9799L7.94406 59.9819ZM119.628 21.4239V22.4079C119.628 25.5412 119.628 28.6746 119.628 31.8079C119.649 32.3008 119.569 32.7928 119.392 33.2532C119.215 33.7136 118.944 34.1325 118.598 34.4839C118.089 35.0053 117.434 35.3608 116.72 35.5036C116.005 35.6465 115.264 35.5701 114.594 35.2844C113.924 34.9988 113.355 34.5172 112.963 33.9029C112.572 33.2886 112.375 32.5702 112.398 31.8419C112.382 28.7109 112.393 25.5769 112.393 22.4419V21.4709H47.3221V22.4209C47.3221 25.5279 47.3301 28.6359 47.3171 31.7429C47.3478 32.2359 47.2772 32.7299 47.1097 33.1946C46.9421 33.6592 46.6812 34.0847 46.343 34.4446C46.0048 34.8046 45.5964 35.0915 45.143 35.2876C44.6897 35.4837 44.201 35.5848 43.7071 35.5848C43.2131 35.5848 42.7244 35.4837 42.2711 35.2876C41.8177 35.0915 41.4094 34.8046 41.0711 34.4446C40.7329 34.0847 40.472 33.6592 40.3045 33.1946C40.1369 32.7299 40.0663 32.2359 40.0971 31.7429C40.0917 28.6096 40.0917 25.4762 40.0971 22.3429V21.4519C39.7781 21.4389 39.5251 21.4169 39.2701 21.4169C33.3161 21.4169 27.3614 21.4186 21.4061 21.4219C20.6556 21.4098 19.9053 21.4526 19.1611 21.5499C16.0237 21.9812 13.1521 23.5441 11.0863 25.9445C9.02057 28.3448 7.90308 31.4173 7.94406 34.5839C7.94406 40.3299 7.94406 46.0772 7.94406 51.8259V52.6879H152.267C152.286 52.4749 152.318 52.3019 152.318 52.1269C152.318 46.1199 152.339 40.1129 152.307 34.1059C152.309 31.4687 151.451 28.9029 149.862 26.7979C148.621 25.0619 146.969 23.6613 145.053 22.7219C143.137 21.7825 141.017 21.3337 138.885 21.4159C132.774 21.4319 126.663 21.4209 120.555 21.4209L119.628 21.4239Z" fill="#FFCC00"/>
</g>
<path d="M74.9536 106.603C74.9536 117.562 72.7739 126.28 68.4146 132.759C64.0552 139.207 58.1973 142.431 50.8408 142.431C42.8789 142.431 36.6426 139.177 32.1318 132.668C27.6514 126.189 25.4111 117.138 25.4111 105.513C25.4111 94.5234 27.6514 85.835 32.1318 79.4473C36.6426 73.0293 42.7275 69.8203 50.3867 69.8203C58.1064 69.8203 64.1309 73.0747 68.46 79.5835C72.7891 86.0923 74.9536 95.0986 74.9536 106.603ZM56.2446 106.466C56.2446 92.9341 54.2012 86.168 50.1143 86.168C46.0576 86.168 44.0293 92.2227 44.0293 104.332C44.0293 118.803 46.0122 126.038 49.978 126.038C52.1274 126.038 53.7017 124.464 54.7007 121.315C55.73 118.137 56.2446 113.187 56.2446 106.466ZM82.2646 120.589H100.747C100.747 124.797 102.291 126.901 105.378 126.901C106.922 126.901 108.179 126.311 109.147 125.13C110.116 123.919 110.601 122.345 110.601 120.407C110.601 115.473 108.027 113.005 102.881 113.005C102.518 113.005 102.063 113.036 101.519 113.096C100.974 113.126 100.353 113.172 99.6567 113.232V98.2925C100.171 98.3228 100.61 98.353 100.974 98.3833C101.367 98.3833 101.685 98.3833 101.927 98.3833C107.104 98.3833 109.692 96.0068 109.692 91.2539C109.692 87.3789 108.345 85.4414 105.651 85.4414C103.532 85.4414 102.321 87.0005 102.018 90.1187L101.927 91.0723H83.627C84.1416 84.5332 86.4272 79.3716 90.4839 75.5874C94.5103 71.7427 99.793 69.8203 106.332 69.8203C112.568 69.8203 117.745 71.7881 121.862 75.7236C126.07 79.6289 128.174 84.4575 128.174 90.2095C128.174 96.6577 125.344 101.577 119.683 104.968C125.949 108.57 129.083 113.989 129.083 121.225C129.083 127.491 126.857 132.592 122.407 136.528C118.018 140.463 112.311 142.431 105.288 142.431C98.4155 142.431 92.8755 140.509 88.6675 136.664C84.3989 132.819 82.2646 127.809 82.2646 121.633V120.589Z" fill="#FFCC00"/>
</svg>
