<svg width="352" height="99" viewBox="0 0 352 99" fill="none" xmlns="http://www.w3.org/2000/svg">
<g filter="url(#filter0_d_22_1519)">
<path d="M53.7422 60.605L52.8633 76.938C49.4697 78.3052 46.4302 78.9888 43.7446 78.9888C37.4214 78.9888 32.0991 76.6694 27.7778 72.0308C22.9438 66.8306 20.5269 59.4697 20.5269 49.9482C20.5269 41.0371 22.7974 33.8838 27.3384 28.4883C31.8794 23.1172 37.9463 20.4316 45.5391 20.4316C48.0049 20.4316 50.5195 20.8955 53.083 21.8232V37.9731C50.8125 35.7026 48.481 34.5674 46.0884 34.5674C42.9634 34.5674 40.522 35.8979 38.7642 38.5591C37.0063 41.2446 36.1274 44.9556 36.1274 49.6919C36.1274 51.9868 36.3472 54.0376 36.7866 55.8442C37.2261 57.6509 37.8486 59.1768 38.6543 60.4219C39.4844 61.667 40.4976 62.6191 41.6938 63.2783C42.8901 63.9375 44.2573 64.2671 45.7954 64.2671C48.4321 64.2671 51.0811 63.0464 53.7422 60.605ZM101.35 78H85.5659L84.4307 70.8223H74.1401L72.895 78H57.1113L70.6978 21.457H89.3745L101.35 78ZM82.6362 58.7007L81.6475 52.1089C81.623 52.0845 81.5742 51.7549 81.501 51.1201C81.4521 50.583 81.1958 48.459 80.7319 44.748C80.6831 44.333 80.6221 43.7715 80.5488 43.0635C80.4756 42.3311 80.3779 41.4155 80.2559 40.3169L79.7798 34.9702C79.731 35.4829 79.6577 36.0566 79.5601 36.6914C79.4868 37.3262 79.4014 38.022 79.3037 38.7788C79.1328 40.2925 79.0107 41.3423 78.9375 41.9282C78.8643 42.5142 78.8154 42.8682 78.791 42.9902L77.729 49.8384L76.1909 58.7007H82.6362ZM125.556 78H110.285V35.0068H101.862V21.457H134.309V35.0068H125.556V78ZM138.264 78V21.457H166.645V34.7505H153.535V42.9902H165.29V55.771H153.535V64.4136H166.645V78H138.264ZM213.41 78H196.894L189.35 57.8584C189.277 57.5166 189.143 57.0649 188.947 56.5034C188.776 55.9419 188.557 55.2705 188.288 54.4893L188.398 58.2246V78H173.2V21.457H188.837C195.722 21.457 200.874 22.812 204.292 25.522C208.637 28.9888 210.81 33.9204 210.81 40.3169C210.81 47.1528 207.893 51.877 202.058 54.4893L213.41 78ZM188.471 47.6411H189.497C191.254 47.6411 192.719 46.9697 193.891 45.627C195.063 44.2842 195.649 42.5752 195.649 40.5C195.649 36.2764 193.439 34.1646 189.021 34.1646H188.471V47.6411ZM233.735 78H218.464V21.457H233.735V78ZM241.682 78V21.457H256.257L263.911 41.3057C264.326 42.4775 264.79 43.8203 265.302 45.334C265.839 46.8477 266.425 48.5933 267.06 50.5708L268.635 55.5513C268.073 50.644 267.646 46.4448 267.353 42.9536C267.06 39.4624 266.914 36.5327 266.914 34.1646V21.457H281.489V78H266.914L259.223 57.1992C258.417 54.9775 257.685 52.9023 257.026 50.9736C256.391 49.0205 255.83 47.165 255.341 45.4072C255.659 49.3867 255.891 52.8535 256.037 55.8076C256.184 58.7617 256.257 61.3496 256.257 63.5713V78H241.682ZM309.76 45.2974H331.074V47.6411C331.074 58.5298 329.45 66.3667 326.203 71.1519C322.663 76.3765 317.426 78.9888 310.493 78.9888C303.681 78.9888 298.334 76.4253 294.453 71.2983C290.595 66.1226 288.667 59.0181 288.667 49.9849C288.667 40.8296 290.607 33.6152 294.489 28.3418C298.371 23.0684 303.681 20.4316 310.419 20.4316C319.355 20.4316 325.837 25.0947 329.865 34.4209L315.07 39.8408C314.851 38.0586 314.338 36.6548 313.532 35.6294C312.751 34.5796 311.762 34.0547 310.566 34.0547C306.367 34.0547 304.267 39.8286 304.267 51.3765C304.267 56.2837 304.731 59.8481 305.659 62.0698C306.586 64.2915 308.063 65.4023 310.09 65.4023C310.896 65.4023 311.628 65.207 312.287 64.8164C312.946 64.4258 313.496 63.8765 313.935 63.1685C314.399 62.4604 314.753 61.606 314.997 60.605C315.266 59.5796 315.4 58.4443 315.4 57.1992H309.76V45.2974Z" fill="white"/>
</g>
<defs>
<filter id="filter0_d_22_1519" x="0.526855" y="0.431641" width="350.547" height="98.5571" filterUnits="userSpaceOnUse" color-interpolation-filters="sRGB">
<feFlood flood-opacity="0" result="BackgroundImageFix"/>
<feColorMatrix in="SourceAlpha" type="matrix" values="0 0 0 0 0 0 0 0 0 0 0 0 0 0 0 0 0 0 127 0" result="hardAlpha"/>
<feOffset/>
<feGaussianBlur stdDeviation="10"/>
<feColorMatrix type="matrix" values="0 0 0 0 0.831373 0 0 0 0 0.0196078 0 0 0 0 0.0666667 0 0 0 1 0"/>
<feBlend mode="normal" in2="BackgroundImageFix" result="effect1_dropShadow_22_1519"/>
<feBlend mode="normal" in="SourceGraphic" in2="effect1_dropShadow_22_1519" result="shape"/>
</filter>
</defs>
</svg>
