<svg width="319" height="99" viewBox="0 0 319 99" fill="none" xmlns="http://www.w3.org/2000/svg">
<g filter="url(#filter0_d_22_1637)">
<path d="M53.7422 60.605L52.8633 76.938C49.4697 78.3052 46.4302 78.9888 43.7446 78.9888C37.4214 78.9888 32.0991 76.6694 27.7778 72.0308C22.9438 66.8306 20.5269 59.4697 20.5269 49.9482C20.5269 41.0371 22.7974 33.8838 27.3384 28.4883C31.8794 23.1172 37.9463 20.4316 45.5391 20.4316C48.0049 20.4316 50.5195 20.8955 53.083 21.8232V37.9731C50.8125 35.7026 48.481 34.5674 46.0884 34.5674C42.9634 34.5674 40.522 35.8979 38.7642 38.5591C37.0063 41.2446 36.1274 44.9556 36.1274 49.6919C36.1274 51.9868 36.3472 54.0376 36.7866 55.8442C37.2261 57.6509 37.8486 59.1768 38.6543 60.4219C39.4844 61.667 40.4976 62.6191 41.6938 63.2783C42.8901 63.9375 44.2573 64.2671 45.7954 64.2671C48.4321 64.2671 51.0811 63.0464 53.7422 60.605ZM101.313 49.9116C101.313 58.5298 99.3477 65.5366 95.417 70.9321C91.5107 76.3032 86.4204 78.9888 80.146 78.9888C74.5796 78.9888 69.8066 76.9258 65.8271 72.7998C60.8223 67.5752 58.3198 59.7383 58.3198 49.2891C58.3198 39.2793 60.9321 31.6255 66.1567 26.3276C70.0386 22.397 74.6406 20.4316 79.9629 20.4316C86.4814 20.4316 91.6694 23.0928 95.5269 28.415C99.3843 33.7373 101.313 40.9028 101.313 49.9116ZM85.4561 50.0215C85.4561 39.792 83.6494 34.6772 80.0361 34.6772C78.2295 34.6772 76.7891 36.02 75.7148 38.7056C74.665 41.1958 74.1401 44.8579 74.1401 49.6919C74.1401 54.4526 74.6284 58.1514 75.605 60.7881C76.606 63.4004 77.9854 64.7065 79.7432 64.7065C81.5498 64.7065 82.9414 63.4126 83.918 60.8247C84.9434 58.2368 85.4561 54.6357 85.4561 50.0215ZM107.868 78V21.457H122.443L130.097 41.3057C130.512 42.4775 130.976 43.8203 131.489 45.334C132.026 46.8477 132.612 48.5933 133.247 50.5708L134.821 55.5513C134.26 50.644 133.833 46.4448 133.54 42.9536C133.247 39.4624 133.1 36.5327 133.1 34.1646V21.457H147.675V78H133.1L125.41 57.1992C124.604 54.9775 123.872 52.9023 123.212 50.9736C122.578 49.0205 122.016 47.165 121.528 45.4072C121.845 49.3867 122.077 52.8535 122.224 55.8076C122.37 58.7617 122.443 61.3496 122.443 63.5713V78H107.868ZM175.361 78H160.09V35.0068H151.667V21.457H184.113V35.0068H175.361V78ZM227.399 78H211.616L210.48 70.8223H200.19L198.945 78H183.161L196.748 21.457H215.424L227.399 78ZM208.686 58.7007L207.697 52.1089C207.673 52.0845 207.624 51.7549 207.551 51.1201C207.502 50.583 207.246 48.459 206.782 44.748C206.733 44.333 206.672 43.7715 206.599 43.0635C206.525 42.3311 206.428 41.4155 206.306 40.3169L205.83 34.9702C205.781 35.4829 205.708 36.0566 205.61 36.6914C205.537 37.3262 205.451 38.022 205.354 38.7788C205.183 40.2925 205.061 41.3423 204.987 41.9282C204.914 42.5142 204.865 42.8682 204.841 42.9902L203.779 49.8384L202.241 58.7007H208.686ZM263.654 60.605L262.775 76.938C259.382 78.3052 256.342 78.9888 253.657 78.9888C247.333 78.9888 242.011 76.6694 237.69 72.0308C232.856 66.8306 230.439 59.4697 230.439 49.9482C230.439 41.0371 232.709 33.8838 237.25 28.4883C241.792 23.1172 247.858 20.4316 255.451 20.4316C257.917 20.4316 260.432 20.8955 262.995 21.8232V37.9731C260.725 35.7026 258.393 34.5674 256 34.5674C252.875 34.5674 250.434 35.8979 248.676 38.5591C246.918 41.2446 246.04 44.9556 246.04 49.6919C246.04 51.9868 246.259 54.0376 246.699 55.8442C247.138 57.6509 247.761 59.1768 248.566 60.4219C249.396 61.667 250.41 62.6191 251.606 63.2783C252.802 63.9375 254.169 64.2671 255.708 64.2671C258.344 64.2671 260.993 63.0464 263.654 60.605ZM289.399 78H274.128V35.0068H265.705V21.457H298.151V35.0068H289.399V78Z" fill="white"/>
</g>
<defs>
<filter id="filter0_d_22_1637" x="0.526855" y="0.431641" width="317.625" height="98.5571" filterUnits="userSpaceOnUse" color-interpolation-filters="sRGB">
<feFlood flood-opacity="0" result="BackgroundImageFix"/>
<feColorMatrix in="SourceAlpha" type="matrix" values="0 0 0 0 0 0 0 0 0 0 0 0 0 0 0 0 0 0 127 0" result="hardAlpha"/>
<feOffset/>
<feGaussianBlur stdDeviation="10"/>
<feColorMatrix type="matrix" values="0 0 0 0 0.831373 0 0 0 0 0.0196078 0 0 0 0 0.0666667 0 0 0 1 0"/>
<feBlend mode="normal" in2="BackgroundImageFix" result="effect1_dropShadow_22_1637"/>
<feBlend mode="normal" in="SourceGraphic" in2="effect1_dropShadow_22_1637" result="shape"/>
</filter>
</defs>
</svg>
