<svg width="642" height="99" viewBox="0 0 642 99" fill="none" xmlns="http://www.w3.org/2000/svg">
<g filter="url(#filter0_d_22_1531)">
<path d="M20.9551 78V21.457H49.3364V34.7505H36.2261V42.9902H47.9814V55.771H36.2261V64.4136H49.3364V78H20.9551ZM95.772 78H78.8164L75.9966 69.9434C75.0933 67.4775 74.3608 65.1094 73.7993 62.8389C73.2622 65.085 72.4565 67.6606 71.3823 70.5659L68.5625 78H51.9365L65.6694 48.6665L52.7056 21.457H69.6978L72.2246 29.1108C72.4932 29.8188 72.7495 30.6489 72.9937 31.6011C73.2622 32.5532 73.5308 33.6274 73.7993 34.8237C74.4097 32.3823 74.9224 30.5024 75.3374 29.1841L77.6812 21.457H94.7832L81.8926 48.6665L95.772 78ZM115.035 78H99.7637V21.457H114.559C121.932 21.457 127.4 22.9585 130.965 25.9614C135.164 29.5015 137.264 34.4209 137.264 40.7197C137.264 47.5801 135.03 52.6948 130.562 56.064C127.51 58.3345 123.128 59.4697 117.415 59.4697H115.035V78ZM115.035 46.7622L115.73 46.7988C117.586 46.7988 119.063 46.2373 120.162 45.1143C121.26 43.9668 121.81 42.4043 121.81 40.4268C121.81 38.4736 121.272 36.8867 120.198 35.666C119.124 34.4209 117.757 33.7983 116.097 33.7983H115.035V46.7622ZM182.82 78H166.304L158.76 57.8584C158.687 57.5166 158.553 57.0649 158.357 56.5034C158.187 55.9419 157.967 55.2705 157.698 54.4893L157.808 58.2246V78H142.61V21.457H158.248C165.132 21.457 170.284 22.812 173.702 25.522C178.047 28.9888 180.22 33.9204 180.22 40.3169C180.22 47.1528 177.303 51.877 171.468 54.4893L182.82 78ZM157.881 47.6411H158.907C160.665 47.6411 162.129 46.9697 163.301 45.627C164.473 44.2842 165.059 42.5752 165.059 40.5C165.059 36.2764 162.85 34.1646 158.431 34.1646H157.881V47.6411ZM187.874 78V21.457H216.255V34.7505H203.145V42.9902H214.9V55.771H203.145V64.4136H216.255V78H187.874ZM221.602 76.6084V58.8472C224.605 62.9487 227.852 64.9995 231.343 64.9995C232.662 64.9995 233.736 64.6577 234.566 63.9741C235.396 63.2661 235.811 62.3872 235.811 61.3374C235.811 59.8237 234.908 58.3467 233.101 56.9062L230.611 54.9653C228.951 53.7202 227.535 52.4873 226.363 51.2666C225.191 50.0215 224.239 48.752 223.506 47.458C222.774 46.1396 222.237 44.7847 221.895 43.3931C221.553 42.0015 221.382 40.5366 221.382 38.9985C221.382 36.3618 221.993 33.603 223.213 30.7222C223.824 29.3794 224.532 28.1587 225.337 27.0601C226.143 25.937 227.071 24.9482 228.121 24.0938C231.001 21.6523 234.48 20.4316 238.558 20.4316C242.195 20.4316 245.857 21.396 249.544 23.3247V40.6099C248.299 38.6812 246.883 37.1675 245.296 36.0688C243.709 34.9458 242.146 34.3843 240.608 34.3843C239.437 34.3843 238.472 34.7261 237.715 35.4097C236.934 36.0688 236.543 36.8623 236.543 37.79C236.543 39.3037 237.581 40.8052 239.656 42.2944L242.073 44.0889C245.296 46.4082 247.603 48.7886 248.995 51.23C250.411 53.6714 251.119 56.5278 251.119 59.7993C251.119 65.3657 249.422 69.9556 246.028 73.5688C242.635 77.1821 238.338 78.9888 233.138 78.9888C229.549 78.9888 225.704 78.1953 221.602 76.6084ZM255.879 76.6084V58.8472C258.882 62.9487 262.129 64.9995 265.621 64.9995C266.939 64.9995 268.013 64.6577 268.843 63.9741C269.673 63.2661 270.088 62.3872 270.088 61.3374C270.088 59.8237 269.185 58.3467 267.378 56.9062L264.888 54.9653C263.228 53.7202 261.812 52.4873 260.64 51.2666C259.468 50.0215 258.516 48.752 257.784 47.458C257.051 46.1396 256.514 44.7847 256.172 43.3931C255.831 42.0015 255.66 40.5366 255.66 38.9985C255.66 36.3618 256.27 33.603 257.491 30.7222C258.101 29.3794 258.809 28.1587 259.615 27.0601C260.42 25.937 261.348 24.9482 262.398 24.0938C265.279 21.6523 268.758 20.4316 272.835 20.4316C276.473 20.4316 280.135 21.396 283.821 23.3247V40.6099C282.576 38.6812 281.16 37.1675 279.573 36.0688C277.986 34.9458 276.424 34.3843 274.886 34.3843C273.714 34.3843 272.75 34.7261 271.993 35.4097C271.211 36.0688 270.821 36.8623 270.821 37.79C270.821 39.3037 271.858 40.8052 273.934 42.2944L276.351 44.0889C279.573 46.4082 281.88 48.7886 283.272 51.23C284.688 53.6714 285.396 56.5278 285.396 59.7993C285.396 65.3657 283.699 69.9556 280.306 73.5688C276.912 77.1821 272.615 78.9888 267.415 78.9888C263.826 78.9888 259.981 78.1953 255.879 76.6084ZM339.266 78H323.995V54.0498L309.969 21.457H325.899L328.646 29.8433C329.183 31.479 329.659 33.0537 330.074 34.5674C330.513 36.0811 330.904 37.5337 331.246 38.9253C331.807 36.8501 332.295 35.0679 332.71 33.5786C333.125 32.0649 333.492 30.8442 333.809 29.9165L336.592 21.457H352.413L339.266 54.0498V78ZM395.552 49.9116C395.552 58.5298 393.587 65.5366 389.656 70.9321C385.75 76.3032 380.66 78.9888 374.385 78.9888C368.819 78.9888 364.046 76.9258 360.066 72.7998C355.062 67.5752 352.559 59.7383 352.559 49.2891C352.559 39.2793 355.171 31.6255 360.396 26.3276C364.278 22.397 368.88 20.4316 374.202 20.4316C380.721 20.4316 385.909 23.0928 389.766 28.415C393.624 33.7373 395.552 40.9028 395.552 49.9116ZM379.695 50.0215C379.695 39.792 377.889 34.6772 374.275 34.6772C372.469 34.6772 371.028 36.02 369.954 38.7056C368.904 41.1958 368.379 44.8579 368.379 49.6919C368.379 54.4526 368.868 58.1514 369.844 60.7881C370.845 63.4004 372.225 64.7065 373.982 64.7065C375.789 64.7065 377.181 63.4126 378.157 60.8247C379.183 58.2368 379.695 54.6357 379.695 50.0215ZM425.179 21.457H440.45V61.4473C440.45 64.792 439.925 67.502 438.875 69.5771C437.85 71.75 436.141 73.7153 433.748 75.4731C430.525 77.8169 426.607 78.9888 421.993 78.9888C416.768 78.9888 412.386 77.6948 408.846 75.1069C404.354 71.811 402.107 66.5376 402.107 59.2866V21.457H417.378V57.9316C417.378 60.3975 417.671 62.1431 418.257 63.1685C418.868 64.1938 419.881 64.7065 421.297 64.7065C422.762 64.7065 423.775 64.2305 424.336 63.2783C424.898 62.2773 425.179 60.5073 425.179 57.9683V21.457ZM488.606 78H472.09L464.546 57.8584C464.473 57.5166 464.339 57.0649 464.144 56.5034C463.973 55.9419 463.753 55.2705 463.484 54.4893L463.594 58.2246V78H448.396V21.457H464.034C470.918 21.457 476.07 22.812 479.488 25.522C483.833 28.9888 486.006 33.9204 486.006 40.3169C486.006 47.1528 483.089 51.877 477.254 54.4893L488.606 78ZM463.667 47.6411H464.693C466.451 47.6411 467.916 46.9697 469.087 45.627C470.259 44.2842 470.845 42.5752 470.845 40.5C470.845 36.2764 468.636 34.1646 464.217 34.1646H463.667V47.6411ZM492.452 76.6084V58.8472C495.455 62.9487 498.702 64.9995 502.193 64.9995C503.511 64.9995 504.585 64.6577 505.416 63.9741C506.246 63.2661 506.661 62.3872 506.661 61.3374C506.661 59.8237 505.757 58.3467 503.951 56.9062L501.46 54.9653C499.8 53.7202 498.384 52.4873 497.212 51.2666C496.041 50.0215 495.088 48.752 494.356 47.458C493.624 46.1396 493.086 44.7847 492.745 43.3931C492.403 42.0015 492.232 40.5366 492.232 38.9985C492.232 36.3618 492.842 33.603 494.063 30.7222C494.673 29.3794 495.381 28.1587 496.187 27.0601C496.993 25.937 497.92 24.9482 498.97 24.0938C501.851 21.6523 505.33 20.4316 509.407 20.4316C513.045 20.4316 516.707 21.396 520.394 23.3247V40.6099C519.148 38.6812 517.732 37.1675 516.146 36.0688C514.559 34.9458 512.996 34.3843 511.458 34.3843C510.286 34.3843 509.322 34.7261 508.565 35.4097C507.784 36.0688 507.393 36.8623 507.393 37.79C507.393 39.3037 508.431 40.8052 510.506 42.2944L512.923 44.0889C516.146 46.4082 518.453 48.7886 519.844 51.23C521.26 53.6714 521.968 56.5278 521.968 59.7993C521.968 65.3657 520.271 69.9556 516.878 73.5688C513.484 77.1821 509.188 78.9888 503.987 78.9888C500.398 78.9888 496.553 78.1953 492.452 76.6084ZM527.938 78V21.457H556.319V34.7505H543.208V42.9902H554.964V55.771H543.208V64.4136H556.319V78H527.938ZM589.607 78H562.874V21.457H578.145V64.4136H589.607V78ZM609.419 78H594.148V21.457H621.138V34.7505H609.419V42.9902H620.333V55.771H609.419V78Z" fill="white"/>
</g>
<defs>
<filter id="filter0_d_22_1531" x="0.955078" y="0.431641" width="640.183" height="98.5571" filterUnits="userSpaceOnUse" color-interpolation-filters="sRGB">
<feFlood flood-opacity="0" result="BackgroundImageFix"/>
<feColorMatrix in="SourceAlpha" type="matrix" values="0 0 0 0 0 0 0 0 0 0 0 0 0 0 0 0 0 0 127 0" result="hardAlpha"/>
<feOffset/>
<feGaussianBlur stdDeviation="10"/>
<feColorMatrix type="matrix" values="0 0 0 0 0.831373 0 0 0 0 0.0196078 0 0 0 0 0.0666667 0 0 0 1 0"/>
<feBlend mode="normal" in2="BackgroundImageFix" result="effect1_dropShadow_22_1531"/>
<feBlend mode="normal" in="SourceGraphic" in2="effect1_dropShadow_22_1531" result="shape"/>
</filter>
</defs>
</svg>
