<svg width="195" height="106" viewBox="0 0 195 106" fill="none" xmlns="http://www.w3.org/2000/svg">
<g filter="url(#filter0_d_22_1535)">
<path d="M36.2261 78H20.9551V21.457H47.9448V34.7505H36.2261V42.9902H47.1392V55.771H36.2261V78ZM93.2451 78H77.4614L76.3262 70.8223H66.0356L64.7905 78H49.0068L62.5933 21.457H81.27L93.2451 78ZM74.5317 58.7007L73.543 52.1089C73.5186 52.0845 73.4697 51.7549 73.3965 51.1201C73.3477 50.583 73.0913 48.459 72.6274 44.748C72.5786 44.333 72.5176 43.7715 72.4443 43.0635C72.3711 42.3311 72.2734 41.4155 72.1514 40.3169L71.6753 34.9702C71.6265 35.4829 71.5532 36.0566 71.4556 36.6914C71.3823 37.3262 71.2969 38.022 71.1992 38.7788C71.0283 40.2925 70.9062 41.3423 70.833 41.9282C70.7598 42.5142 70.7109 42.8682 70.6865 42.9902L69.6245 49.8384L68.0864 58.7007H74.5317ZM139.9 79.0986L127.632 85.8369L122.396 78.2563C120.638 78.7446 119.124 78.9888 117.854 78.9888C111.8 78.9888 106.758 76.5229 102.73 71.5913C98.4331 66.3423 96.2847 59.0913 96.2847 49.8384C96.2847 40.8784 98.2378 33.7495 102.144 28.4517C106.05 23.105 111.275 20.4316 117.818 20.4316C124.19 20.4316 129.366 23.0806 133.345 28.3784C137.325 33.6763 139.314 40.5732 139.314 49.0693C139.314 58.7617 137.178 66.1836 132.906 71.335L139.9 79.0986ZM123.494 50.0215C123.494 47.6045 123.36 45.4438 123.091 43.5396C122.823 41.6353 122.444 40.0361 121.956 38.7422C121.468 37.4238 120.857 36.4229 120.125 35.7393C119.417 35.0312 118.611 34.6772 117.708 34.6772C115.999 34.6772 114.632 36.0444 113.606 38.7788C112.605 41.7085 112.105 45.3828 112.105 49.8018C112.105 52.1455 112.227 54.2451 112.471 56.1006C112.74 57.9561 113.106 59.5186 113.57 60.7881C114.058 62.0576 114.656 63.0342 115.364 63.7178C116.072 64.377 116.866 64.7065 117.745 64.7065C118.648 64.7065 119.454 64.377 120.162 63.7178C120.87 63.0586 121.468 62.0942 121.956 60.8247C122.469 59.5552 122.847 58.0171 123.091 56.2104C123.36 54.4038 123.494 52.3408 123.494 50.0215ZM144.441 74.7407L149.788 63.7544C152.425 66.5132 154.878 67.8926 157.149 67.8926C159.053 67.8926 160.005 67.209 160.005 65.8418C160.005 64.6699 158.724 63.6201 156.16 62.6924C149.251 60.251 145.796 56.3813 145.796 51.0835C145.796 47.2017 147.334 43.979 150.411 41.4155C153.511 38.8521 157.381 37.5703 162.02 37.5703C165.828 37.5703 169.759 38.6445 173.812 40.793L168.794 51.5229C166.329 49.2036 164.314 48.0439 162.752 48.0439C161.214 48.0439 160.445 48.6665 160.445 49.9116C160.445 51.2544 161.91 52.5117 164.839 53.6836C168.501 55.124 170.992 56.6499 172.31 58.2612C173.702 59.8726 174.397 62.0942 174.397 64.9263C174.397 69.0034 172.92 72.3359 169.966 74.9238C167.012 77.5117 163.216 78.8057 158.577 78.8057C156.355 78.8057 154.146 78.5249 151.949 77.9634C150.923 77.6948 149.8 77.292 148.58 76.7549C147.359 76.1934 145.979 75.522 144.441 74.7407Z" fill="white"/>
</g>
<defs>
<filter id="filter0_d_22_1535" x="0.955078" y="0.431641" width="193.442" height="105.405" filterUnits="userSpaceOnUse" color-interpolation-filters="sRGB">
<feFlood flood-opacity="0" result="BackgroundImageFix"/>
<feColorMatrix in="SourceAlpha" type="matrix" values="0 0 0 0 0 0 0 0 0 0 0 0 0 0 0 0 0 0 127 0" result="hardAlpha"/>
<feOffset/>
<feGaussianBlur stdDeviation="10"/>
<feColorMatrix type="matrix" values="0 0 0 0 0.831373 0 0 0 0 0.0196078 0 0 0 0 0.0666667 0 0 0 1 0"/>
<feBlend mode="normal" in2="BackgroundImageFix" result="effect1_dropShadow_22_1535"/>
<feBlend mode="normal" in="SourceGraphic" in2="effect1_dropShadow_22_1535" result="shape"/>
</filter>
</defs>
</svg>
