<svg width="415" height="99" viewBox="0 0 415 99" fill="none" xmlns="http://www.w3.org/2000/svg">
<g filter="url(#filter0_d_22_1525)">
<path d="M43.6938 78H28.4229V35.0068H20V21.457H52.4463V35.0068H43.6938V78ZM96.6113 78H80.0952L72.5513 57.8584C72.478 57.5166 72.3438 57.0649 72.1484 56.5034C71.9775 55.9419 71.7578 55.2705 71.4893 54.4893L71.5991 58.2246V78H56.4014V21.457H72.0386C78.9233 21.457 84.0747 22.812 87.4927 25.522C91.8384 28.9888 94.0112 33.9204 94.0112 40.3169C94.0112 47.1528 91.0938 51.877 85.2588 54.4893L96.6113 78ZM71.6724 47.6411H72.6978C74.4556 47.6411 75.9204 46.9697 77.0923 45.627C78.2642 44.2842 78.8501 42.5752 78.8501 40.5C78.8501 36.2764 76.6406 34.1646 72.2217 34.1646H71.6724V47.6411ZM142.388 78H126.604L125.469 70.8223H115.178L113.933 78H98.1494L111.736 21.457H130.413L142.388 78ZM123.674 58.7007L122.686 52.1089C122.661 52.0845 122.612 51.7549 122.539 51.1201C122.49 50.583 122.234 48.459 121.77 44.748C121.721 44.333 121.66 43.7715 121.587 43.0635C121.514 42.3311 121.416 41.4155 121.294 40.3169L120.818 34.9702C120.769 35.4829 120.696 36.0566 120.598 36.6914C120.525 37.3262 120.439 38.022 120.342 38.7788C120.171 40.2925 120.049 41.3423 119.976 41.9282C119.902 42.5142 119.854 42.8682 119.829 42.9902L118.767 49.8384L117.229 58.7007H123.674ZM146.855 78V21.457H161.431L169.084 41.3057C169.5 42.4775 169.963 43.8203 170.476 45.334C171.013 46.8477 171.599 48.5933 172.234 50.5708L173.809 55.5513C173.247 50.644 172.82 46.4448 172.527 42.9536C172.234 39.4624 172.087 36.5327 172.087 34.1646V21.457H186.663V78H172.087L164.397 57.1992C163.591 54.9775 162.859 52.9023 162.2 50.9736C161.565 49.0205 161.003 47.165 160.515 45.4072C160.833 49.3867 161.064 52.8535 161.211 55.8076C161.357 58.7617 161.431 61.3496 161.431 63.5713V78H146.855ZM193.401 76.6084V58.8472C196.404 62.9487 199.651 64.9995 203.142 64.9995C204.46 64.9995 205.535 64.6577 206.365 63.9741C207.195 63.2661 207.61 62.3872 207.61 61.3374C207.61 59.8237 206.707 58.3467 204.9 56.9062L202.41 54.9653C200.75 53.7202 199.333 52.4873 198.162 51.2666C196.99 50.0215 196.038 48.752 195.305 47.458C194.573 46.1396 194.036 44.7847 193.694 43.3931C193.352 42.0015 193.181 40.5366 193.181 38.9985C193.181 36.3618 193.792 33.603 195.012 30.7222C195.623 29.3794 196.331 28.1587 197.136 27.0601C197.942 25.937 198.87 24.9482 199.919 24.0938C202.8 21.6523 206.279 20.4316 210.356 20.4316C213.994 20.4316 217.656 21.396 221.343 23.3247V40.6099C220.098 38.6812 218.682 37.1675 217.095 36.0688C215.508 34.9458 213.945 34.3843 212.407 34.3843C211.235 34.3843 210.271 34.7261 209.514 35.4097C208.733 36.0688 208.342 36.8623 208.342 37.79C208.342 39.3037 209.38 40.8052 211.455 42.2944L213.872 44.0889C217.095 46.4082 219.402 48.7886 220.793 51.23C222.209 53.6714 222.917 56.5278 222.917 59.7993C222.917 65.3657 221.221 69.9556 217.827 73.5688C214.434 77.1821 210.137 78.9888 204.937 78.9888C201.348 78.9888 197.502 78.1953 193.401 76.6084ZM244.158 78H228.887V21.457H243.682C251.055 21.457 256.523 22.9585 260.088 25.9614C264.287 29.5015 266.387 34.4209 266.387 40.7197C266.387 47.5801 264.153 52.6948 259.685 56.064C256.633 58.3345 252.251 59.4697 246.538 59.4697H244.158V78ZM244.158 46.7622L244.854 46.7988C246.709 46.7988 248.186 46.2373 249.285 45.1143C250.383 43.9668 250.933 42.4043 250.933 40.4268C250.933 38.4736 250.396 36.8867 249.321 35.666C248.247 34.4209 246.88 33.7983 245.22 33.7983H244.158V46.7622ZM313.298 49.9116C313.298 58.5298 311.333 65.5366 307.402 70.9321C303.496 76.3032 298.406 78.9888 292.131 78.9888C286.565 78.9888 281.792 76.9258 277.812 72.7998C272.808 67.5752 270.305 59.7383 270.305 49.2891C270.305 39.2793 272.917 31.6255 278.142 26.3276C282.024 22.397 286.626 20.4316 291.948 20.4316C298.467 20.4316 303.655 23.0928 307.512 28.415C311.37 33.7373 313.298 40.9028 313.298 49.9116ZM297.441 50.0215C297.441 39.792 295.635 34.6772 292.021 34.6772C290.215 34.6772 288.774 36.02 287.7 38.7056C286.65 41.1958 286.125 44.8579 286.125 49.6919C286.125 54.4526 286.614 58.1514 287.59 60.7881C288.591 63.4004 289.971 64.7065 291.729 64.7065C293.535 64.7065 294.927 63.4126 295.903 60.8247C296.929 58.2368 297.441 54.6357 297.441 50.0215ZM360.063 78H343.547L336.003 57.8584C335.93 57.5166 335.796 57.0649 335.601 56.5034C335.43 55.9419 335.21 55.2705 334.941 54.4893L335.051 58.2246V78H319.854V21.457H335.491C342.375 21.457 347.527 22.812 350.945 25.522C355.291 28.9888 357.463 33.9204 357.463 40.3169C357.463 47.1528 354.546 51.877 348.711 54.4893L360.063 78ZM335.125 47.6411H336.15C337.908 47.6411 339.373 46.9697 340.544 45.627C341.716 44.2842 342.302 42.5752 342.302 40.5C342.302 36.2764 340.093 34.1646 335.674 34.1646H335.125V47.6411ZM385.369 78H370.098V35.0068H361.675V21.457H394.121V35.0068H385.369V78Z" fill="white"/>
</g>
<defs>
<filter id="filter0_d_22_1525" x="0" y="0.431641" width="414.121" height="98.5571" filterUnits="userSpaceOnUse" color-interpolation-filters="sRGB">
<feFlood flood-opacity="0" result="BackgroundImageFix"/>
<feColorMatrix in="SourceAlpha" type="matrix" values="0 0 0 0 0 0 0 0 0 0 0 0 0 0 0 0 0 0 127 0" result="hardAlpha"/>
<feOffset/>
<feGaussianBlur stdDeviation="10"/>
<feColorMatrix type="matrix" values="0 0 0 0 0.831373 0 0 0 0 0.0196078 0 0 0 0 0.0666667 0 0 0 1 0"/>
<feBlend mode="normal" in2="BackgroundImageFix" result="effect1_dropShadow_22_1525"/>
<feBlend mode="normal" in="SourceGraphic" in2="effect1_dropShadow_22_1525" result="shape"/>
</filter>
</defs>
</svg>
