<svg width="429" height="99" viewBox="0 0 429 99" fill="none" xmlns="http://www.w3.org/2000/svg">
<g filter="url(#filter0_d_22_1533)">
<path d="M53.7422 60.605L52.8633 76.938C49.4697 78.3052 46.4302 78.9888 43.7446 78.9888C37.4214 78.9888 32.0991 76.6694 27.7778 72.0308C22.9438 66.8306 20.5269 59.4697 20.5269 49.9482C20.5269 41.0371 22.7974 33.8838 27.3384 28.4883C31.8794 23.1172 37.9463 20.4316 45.5391 20.4316C48.0049 20.4316 50.5195 20.8955 53.083 21.8232V37.9731C50.8125 35.7026 48.481 34.5674 46.0884 34.5674C42.9634 34.5674 40.522 35.8979 38.7642 38.5591C37.0063 41.2446 36.1274 44.9556 36.1274 49.6919C36.1274 51.9868 36.3472 54.0376 36.7866 55.8442C37.2261 57.6509 37.8486 59.1768 38.6543 60.4219C39.4844 61.667 40.4976 62.6191 41.6938 63.2783C42.8901 63.9375 44.2573 64.2671 45.7954 64.2671C48.4321 64.2671 51.0811 63.0464 53.7422 60.605ZM98.896 78H83.625V55.2583H76.3374V78H61.0664V21.457H76.3374V41.4521H83.625V21.457H98.896V78ZM147.565 78H131.782L130.646 70.8223H120.356L119.111 78H103.327L116.914 21.457H135.59L147.565 78ZM128.852 58.7007L127.863 52.1089C127.839 52.0845 127.79 51.7549 127.717 51.1201C127.668 50.583 127.412 48.459 126.948 44.748C126.899 44.333 126.838 43.7715 126.765 43.0635C126.691 42.3311 126.594 41.4155 126.472 40.3169L125.996 34.9702C125.947 35.4829 125.874 36.0566 125.776 36.6914C125.703 37.3262 125.617 38.022 125.52 38.7788C125.349 40.2925 125.227 41.3423 125.153 41.9282C125.08 42.5142 125.031 42.8682 125.007 42.9902L123.945 49.8384L122.407 58.7007H128.852ZM178.767 78H152.033V21.457H167.304V64.4136H178.767V78ZM210.041 78H183.308V21.457H198.579V64.4136H210.041V78ZM214.582 78V21.457H242.963V34.7505H229.853V42.9902H241.608V55.771H229.853V64.4136H242.963V78H214.582ZM249.519 78V21.457H264.094L271.748 41.3057C272.163 42.4775 272.626 43.8203 273.139 45.334C273.676 46.8477 274.262 48.5933 274.897 50.5708L276.472 55.5513C275.91 50.644 275.483 46.4448 275.19 42.9536C274.897 39.4624 274.75 36.5327 274.75 34.1646V21.457H289.326V78H274.75L267.06 57.1992C266.254 54.9775 265.522 52.9023 264.863 50.9736C264.228 49.0205 263.667 47.165 263.178 45.4072C263.496 49.3867 263.728 52.8535 263.874 55.8076C264.021 58.7617 264.094 61.3496 264.094 63.5713V78H249.519ZM317.597 45.2974H338.911V47.6411C338.911 58.5298 337.287 66.3667 334.04 71.1519C330.5 76.3765 325.263 78.9888 318.33 78.9888C311.518 78.9888 306.171 76.4253 302.29 71.2983C298.432 66.1226 296.503 59.0181 296.503 49.9849C296.503 40.8296 298.444 33.6152 302.326 28.3418C306.208 23.0684 311.518 20.4316 318.256 20.4316C327.192 20.4316 333.674 25.0947 337.702 34.4209L322.907 39.8408C322.688 38.0586 322.175 36.6548 321.369 35.6294C320.588 34.5796 319.599 34.0547 318.403 34.0547C314.204 34.0547 312.104 39.8286 312.104 51.3765C312.104 56.2837 312.568 59.8481 313.496 62.0698C314.423 64.2915 315.9 65.4023 317.927 65.4023C318.732 65.4023 319.465 65.207 320.124 64.8164C320.783 64.4258 321.333 63.8765 321.772 63.1685C322.236 62.4604 322.59 61.606 322.834 60.605C323.103 59.5796 323.237 58.4443 323.237 57.1992H317.597V45.2974ZM345.466 78V21.457H373.847V34.7505H360.737V42.9902H372.492V55.771H360.737V64.4136H373.847V78H345.466ZM379.194 76.6084V58.8472C382.197 62.9487 385.444 64.9995 388.935 64.9995C390.253 64.9995 391.328 64.6577 392.158 63.9741C392.988 63.2661 393.403 62.3872 393.403 61.3374C393.403 59.8237 392.5 58.3467 390.693 56.9062L388.203 54.9653C386.542 53.7202 385.126 52.4873 383.955 51.2666C382.783 50.0215 381.831 48.752 381.098 47.458C380.366 46.1396 379.829 44.7847 379.487 43.3931C379.145 42.0015 378.974 40.5366 378.974 38.9985C378.974 36.3618 379.584 33.603 380.805 30.7222C381.416 29.3794 382.124 28.1587 382.929 27.0601C383.735 25.937 384.663 24.9482 385.712 24.0938C388.593 21.6523 392.072 20.4316 396.149 20.4316C399.787 20.4316 403.449 21.396 407.136 23.3247V40.6099C405.891 38.6812 404.475 37.1675 402.888 36.0688C401.301 34.9458 399.738 34.3843 398.2 34.3843C397.028 34.3843 396.064 34.7261 395.307 35.4097C394.526 36.0688 394.135 36.8623 394.135 37.79C394.135 39.3037 395.173 40.8052 397.248 42.2944L399.665 44.0889C402.888 46.4082 405.195 48.7886 406.586 51.23C408.002 53.6714 408.71 56.5278 408.71 59.7993C408.71 65.3657 407.014 69.9556 403.62 73.5688C400.227 77.1821 395.93 78.9888 390.729 78.9888C387.141 78.9888 383.295 78.1953 379.194 76.6084Z" fill="white"/>
</g>
<defs>
<filter id="filter0_d_22_1533" x="0.526855" y="0.431641" width="428.184" height="98.5571" filterUnits="userSpaceOnUse" color-interpolation-filters="sRGB">
<feFlood flood-opacity="0" result="BackgroundImageFix"/>
<feColorMatrix in="SourceAlpha" type="matrix" values="0 0 0 0 0 0 0 0 0 0 0 0 0 0 0 0 0 0 127 0" result="hardAlpha"/>
<feOffset/>
<feGaussianBlur stdDeviation="10"/>
<feColorMatrix type="matrix" values="0 0 0 0 0.831373 0 0 0 0 0.0196078 0 0 0 0 0.0666667 0 0 0 1 0"/>
<feBlend mode="normal" in2="BackgroundImageFix" result="effect1_dropShadow_22_1533"/>
<feBlend mode="normal" in="SourceGraphic" in2="effect1_dropShadow_22_1533" result="shape"/>
</filter>
</defs>
</svg>
