<svg width="363" height="99" viewBox="0 0 363 99" fill="none" xmlns="http://www.w3.org/2000/svg">
<g filter="url(#filter0_d_22_1529)">
<path d="M20.7466 76.6084V58.8472C23.7495 62.9487 26.9966 64.9995 30.4878 64.9995C31.8062 64.9995 32.8804 64.6577 33.7104 63.9741C34.5405 63.2661 34.9556 62.3872 34.9556 61.3374C34.9556 59.8237 34.0522 58.3467 32.2456 56.9062L29.7554 54.9653C28.0952 53.7202 26.6792 52.4873 25.5073 51.2666C24.3354 50.0215 23.3833 48.752 22.6509 47.458C21.9185 46.1396 21.3813 44.7847 21.0396 43.3931C20.6978 42.0015 20.5269 40.5366 20.5269 38.9985C20.5269 36.3618 21.1372 33.603 22.3579 30.7222C22.9683 29.3794 23.6763 28.1587 24.4819 27.0601C25.2876 25.937 26.2153 24.9482 27.2651 24.0938C30.146 21.6523 33.625 20.4316 37.7021 20.4316C41.3398 20.4316 45.002 21.396 48.6885 23.3247V40.6099C47.4434 38.6812 46.0273 37.1675 44.4404 36.0688C42.8535 34.9458 41.291 34.3843 39.7529 34.3843C38.5811 34.3843 37.6167 34.7261 36.8599 35.4097C36.0786 36.0688 35.688 36.8623 35.688 37.79C35.688 39.3037 36.7256 40.8052 38.8008 42.2944L41.2178 44.0889C44.4404 46.4082 46.7476 48.7886 48.1392 51.23C49.5552 53.6714 50.2632 56.5278 50.2632 59.7993C50.2632 65.3657 48.5664 69.9556 45.1729 73.5688C41.7793 77.1821 37.4824 78.9888 32.2822 78.9888C28.6934 78.9888 24.8481 78.1953 20.7466 76.6084ZM79.3037 21.457H94.5747V61.4473C94.5747 64.792 94.0498 67.502 93 69.5771C91.9746 71.75 90.2656 73.7153 87.873 75.4731C84.6504 77.8169 80.7319 78.9888 76.1177 78.9888C70.8931 78.9888 66.5107 77.6948 62.9707 75.1069C58.4785 71.811 56.2324 66.5376 56.2324 59.2866V21.457H71.5034V57.9316C71.5034 60.3975 71.7964 62.1431 72.3823 63.1685C72.9927 64.1938 74.0059 64.7065 75.4219 64.7065C76.8867 64.7065 77.8999 64.2305 78.4614 63.2783C79.0229 62.2773 79.3037 60.5073 79.3037 57.9683V21.457ZM117.792 78H102.521V21.457H117.316C124.689 21.457 130.158 22.9585 133.723 25.9614C137.922 29.5015 140.021 34.4209 140.021 40.7197C140.021 47.5801 137.788 52.6948 133.32 56.064C130.268 58.3345 125.886 59.4697 120.173 59.4697H117.792V78ZM117.792 46.7622L118.488 46.7988C120.344 46.7988 121.821 46.2373 122.919 45.1143C124.018 43.9668 124.567 42.4043 124.567 40.4268C124.567 38.4736 124.03 36.8867 122.956 35.666C121.882 34.4209 120.515 33.7983 118.854 33.7983H117.792V46.7622ZM145.368 78V21.457H173.75V34.7505H160.639V42.9902H172.395V55.771H160.639V64.4136H173.75V78H145.368ZM220.515 78H203.999L196.455 57.8584C196.381 57.5166 196.247 57.0649 196.052 56.5034C195.881 55.9419 195.661 55.2705 195.393 54.4893L195.502 58.2246V78H180.305V21.457H195.942C202.827 21.457 207.978 22.812 211.396 25.522C215.742 28.9888 217.915 33.9204 217.915 40.3169C217.915 47.1528 214.997 51.877 209.162 54.4893L220.515 78ZM195.576 47.6411H196.601C198.359 47.6411 199.824 46.9697 200.996 45.627C202.167 44.2842 202.753 42.5752 202.753 40.5C202.753 36.2764 200.544 34.1646 196.125 34.1646H195.576V47.6411ZM240.839 78H225.568V21.457H252.558V34.7505H240.839V42.9902H251.752V55.771H240.839V78ZM297.858 78H282.075L280.939 70.8223H270.649L269.404 78H253.62L267.207 21.457H285.883L297.858 78ZM279.145 58.7007L278.156 52.1089C278.132 52.0845 278.083 51.7549 278.01 51.1201C277.961 50.583 277.705 48.459 277.241 44.748C277.192 44.333 277.131 43.7715 277.058 43.0635C276.984 42.3311 276.887 41.4155 276.765 40.3169L276.289 34.9702C276.24 35.4829 276.167 36.0566 276.069 36.6914C275.996 37.3262 275.91 38.022 275.812 38.7788C275.642 40.2925 275.52 41.3423 275.446 41.9282C275.373 42.5142 275.324 42.8682 275.3 42.9902L274.238 49.8384L272.7 58.7007H279.145ZM302.326 78V21.457H316.901L324.555 41.3057C324.97 42.4775 325.434 43.8203 325.947 45.334C326.484 46.8477 327.07 48.5933 327.705 50.5708L329.279 55.5513C328.718 50.644 328.291 46.4448 327.998 42.9536C327.705 39.4624 327.558 36.5327 327.558 34.1646V21.457H342.133V78H327.558L319.868 57.1992C319.062 54.9775 318.33 52.9023 317.67 50.9736C317.036 49.0205 316.474 47.165 315.986 45.4072C316.303 49.3867 316.535 52.8535 316.682 55.8076C316.828 58.7617 316.901 61.3496 316.901 63.5713V78H302.326Z" fill="white"/>
</g>
<defs>
<filter id="filter0_d_22_1529" x="0.526855" y="0.431641" width="361.606" height="98.5571" filterUnits="userSpaceOnUse" color-interpolation-filters="sRGB">
<feFlood flood-opacity="0" result="BackgroundImageFix"/>
<feColorMatrix in="SourceAlpha" type="matrix" values="0 0 0 0 0 0 0 0 0 0 0 0 0 0 0 0 0 0 127 0" result="hardAlpha"/>
<feOffset/>
<feGaussianBlur stdDeviation="10"/>
<feColorMatrix type="matrix" values="0 0 0 0 0.831373 0 0 0 0 0.0196078 0 0 0 0 0.0666667 0 0 0 1 0"/>
<feBlend mode="normal" in2="BackgroundImageFix" result="effect1_dropShadow_22_1529"/>
<feBlend mode="normal" in="SourceGraphic" in2="effect1_dropShadow_22_1529" result="shape"/>
</filter>
</defs>
</svg>
