<svg width="313" height="99" viewBox="0 0 313 99" fill="none" xmlns="http://www.w3.org/2000/svg">
<g filter="url(#filter0_d_22_1521)">
<path d="M41.6206 45.2974H62.9341V47.6411C62.9341 58.5298 61.3105 66.3667 58.0635 71.1519C54.5234 76.3765 49.2866 78.9888 42.353 78.9888C35.5415 78.9888 30.1948 76.4253 26.313 71.2983C22.4556 66.1226 20.5269 59.0181 20.5269 49.9849C20.5269 40.8296 22.4678 33.6152 26.3496 28.3418C30.2314 23.0684 35.5415 20.4316 42.2798 20.4316C51.2153 20.4316 57.6973 25.0947 61.7256 34.4209L46.9307 39.8408C46.7109 38.0586 46.1982 36.6548 45.3926 35.6294C44.6113 34.5796 43.6226 34.0547 42.4263 34.0547C38.2271 34.0547 36.1274 39.8286 36.1274 51.3765C36.1274 56.2837 36.5913 59.8481 37.519 62.0698C38.4468 64.2915 39.9238 65.4023 41.9502 65.4023C42.7559 65.4023 43.4883 65.207 44.1475 64.8164C44.8066 64.4258 45.356 63.8765 45.7954 63.1685C46.2593 62.4604 46.6133 61.606 46.8574 60.605C47.126 59.5796 47.2603 58.4443 47.2603 57.1992H41.6206V45.2974ZM108.967 78H93.1831L92.0479 70.8223H81.7573L80.5122 78H64.7285L78.3149 21.457H96.9917L108.967 78ZM90.2534 58.7007L89.2646 52.1089C89.2402 52.0845 89.1914 51.7549 89.1182 51.1201C89.0693 50.583 88.813 48.459 88.3491 44.748C88.3003 44.333 88.2393 43.7715 88.166 43.0635C88.0928 42.3311 87.9951 41.4155 87.873 40.3169L87.397 34.9702C87.3481 35.4829 87.2749 36.0566 87.1772 36.6914C87.104 37.3262 87.0186 38.022 86.9209 38.7788C86.75 40.2925 86.6279 41.3423 86.5547 41.9282C86.4814 42.5142 86.4326 42.8682 86.4082 42.9902L85.3462 49.8384L83.8081 58.7007H90.2534ZM140.168 78H113.435V21.457H128.706V64.4136H140.168V78ZM171.442 78H144.709V21.457H159.98V64.4136H171.442V78ZM175.983 78V21.457H204.365V34.7505H191.254V42.9902H203.01V55.771H191.254V64.4136H204.365V78H175.983ZM251.13 78H234.614L227.07 57.8584C226.997 57.5166 226.862 57.0649 226.667 56.5034C226.496 55.9419 226.276 55.2705 226.008 54.4893L226.118 58.2246V78H210.92V21.457H226.557C233.442 21.457 238.593 22.812 242.011 25.522C246.357 28.9888 248.53 33.9204 248.53 40.3169C248.53 47.1528 245.612 51.877 239.777 54.4893L251.13 78ZM226.191 47.6411H227.216C228.974 47.6411 230.439 46.9697 231.611 45.627C232.783 44.2842 233.369 42.5752 233.369 40.5C233.369 36.2764 231.159 34.1646 226.74 34.1646H226.191V47.6411ZM279.328 78H264.057V54.0498L250.031 21.457H265.961L268.708 29.8433C269.245 31.479 269.721 33.0537 270.136 34.5674C270.576 36.0811 270.966 37.5337 271.308 38.9253C271.87 36.8501 272.358 35.0679 272.773 33.5786C273.188 32.0649 273.554 30.8442 273.872 29.9165L276.655 21.457H292.475L279.328 54.0498V78Z" fill="white"/>
</g>
<defs>
<filter id="filter0_d_22_1521" x="0.526855" y="0.431641" width="311.948" height="98.5571" filterUnits="userSpaceOnUse" color-interpolation-filters="sRGB">
<feFlood flood-opacity="0" result="BackgroundImageFix"/>
<feColorMatrix in="SourceAlpha" type="matrix" values="0 0 0 0 0 0 0 0 0 0 0 0 0 0 0 0 0 0 127 0" result="hardAlpha"/>
<feOffset/>
<feGaussianBlur stdDeviation="10"/>
<feColorMatrix type="matrix" values="0 0 0 0 0.831373 0 0 0 0 0.0196078 0 0 0 0 0.0666667 0 0 0 1 0"/>
<feBlend mode="normal" in2="BackgroundImageFix" result="effect1_dropShadow_22_1521"/>
<feBlend mode="normal" in="SourceGraphic" in2="effect1_dropShadow_22_1521" result="shape"/>
</filter>
</defs>
</svg>
