<svg width="492" height="99" viewBox="0 0 492 99" fill="none" xmlns="http://www.w3.org/2000/svg">
<g filter="url(#filter0_d_22_1527)">
<path d="M36.2261 78H20.9551V21.457H36.2261V78ZM44.1729 78V21.457H58.748L66.4019 41.3057C66.8169 42.4775 67.2808 43.8203 67.7935 45.334C68.3306 46.8477 68.9165 48.5933 69.5513 50.5708L71.126 55.5513C70.5645 50.644 70.1372 46.4448 69.8442 42.9536C69.5513 39.4624 69.4048 36.5327 69.4048 34.1646V21.457H83.98V78H69.4048L61.7144 57.1992C60.9087 54.9775 60.1763 52.9023 59.5171 50.9736C58.8823 49.0205 58.3208 47.165 57.8325 45.4072C58.1499 49.3867 58.3818 52.8535 58.5283 55.8076C58.6748 58.7617 58.748 61.3496 58.748 63.5713V78H44.1729ZM107.198 78H91.9268V21.457H118.917V34.7505H107.198V42.9902H118.111V55.771H107.198V78ZM166.377 49.9116C166.377 58.5298 164.412 65.5366 160.481 70.9321C156.575 76.3032 151.485 78.9888 145.21 78.9888C139.644 78.9888 134.871 76.9258 130.892 72.7998C125.887 67.5752 123.384 59.7383 123.384 49.2891C123.384 39.2793 125.997 31.6255 131.221 26.3276C135.103 22.397 139.705 20.4316 145.027 20.4316C151.546 20.4316 156.734 23.0928 160.591 28.415C164.449 33.7373 166.377 40.9028 166.377 49.9116ZM150.521 50.0215C150.521 39.792 148.714 34.6772 145.101 34.6772C143.294 34.6772 141.854 36.02 140.779 38.7056C139.729 41.1958 139.205 44.8579 139.205 49.6919C139.205 54.4526 139.693 58.1514 140.669 60.7881C141.67 63.4004 143.05 64.7065 144.808 64.7065C146.614 64.7065 148.006 63.4126 148.982 60.8247C150.008 58.2368 150.521 54.6357 150.521 50.0215ZM213.143 78H196.626L189.083 57.8584C189.009 57.5166 188.875 57.0649 188.68 56.5034C188.509 55.9419 188.289 55.2705 188.021 54.4893L188.13 58.2246V78H172.933V21.457H188.57C195.455 21.457 200.606 22.812 204.024 25.522C208.37 28.9888 210.542 33.9204 210.542 40.3169C210.542 47.1528 207.625 51.877 201.79 54.4893L213.143 78ZM188.204 47.6411H189.229C190.987 47.6411 192.452 46.9697 193.624 45.627C194.795 44.2842 195.381 42.5752 195.381 40.5C195.381 36.2764 193.172 34.1646 188.753 34.1646H188.204V47.6411ZM276.387 78H260.42L259.285 52.2188L258.809 41.9282C258.638 43.9058 258.443 45.7979 258.223 47.6045C258.003 49.3867 257.735 51.1201 257.417 52.8047L252.62 78H240.169L236.067 52.7681C235.823 51.3032 235.494 48.7886 235.079 45.2241C235.03 44.687 234.92 43.5884 234.749 41.9282L234.383 52.3652L233.028 78H216.768L223.36 21.457H242.366L245.552 40.5C245.821 42.0625 246.053 43.7593 246.248 45.5903C246.468 47.4214 246.663 49.4111 246.834 51.5596C247.151 47.9707 247.591 44.7603 248.152 41.9282L252.034 21.457H270.894L276.387 78ZM323.885 78H308.101L306.966 70.8223H296.675L295.43 78H279.646L293.233 21.457H311.91L323.885 78ZM305.171 58.7007L304.183 52.1089C304.158 52.0845 304.109 51.7549 304.036 51.1201C303.987 50.583 303.731 48.459 303.267 44.748C303.218 44.333 303.157 43.7715 303.084 43.0635C303.011 42.3311 302.913 41.4155 302.791 40.3169L302.315 34.9702C302.266 35.4829 302.193 36.0566 302.095 36.6914C302.022 37.3262 301.937 38.022 301.839 38.7788C301.668 40.2925 301.546 41.3423 301.473 41.9282C301.399 42.5142 301.351 42.8682 301.326 42.9902L300.264 49.8384L298.726 58.7007H305.171ZM348.091 78H332.82V35.0068H324.397V21.457H356.844V35.0068H348.091V78ZM376.07 78H360.799V21.457H376.07V78ZM425.582 49.9116C425.582 58.5298 423.616 65.5366 419.686 70.9321C415.779 76.3032 410.689 78.9888 404.415 78.9888C398.848 78.9888 394.075 76.9258 390.096 72.7998C385.091 67.5752 382.588 59.7383 382.588 49.2891C382.588 39.2793 385.201 31.6255 390.425 26.3276C394.307 22.397 398.909 20.4316 404.231 20.4316C410.75 20.4316 415.938 23.0928 419.795 28.415C423.653 33.7373 425.582 40.9028 425.582 49.9116ZM409.725 50.0215C409.725 39.792 407.918 34.6772 404.305 34.6772C402.498 34.6772 401.058 36.02 399.983 38.7056C398.934 41.1958 398.409 44.8579 398.409 49.6919C398.409 54.4526 398.897 58.1514 399.874 60.7881C400.875 63.4004 402.254 64.7065 404.012 64.7065C405.818 64.7065 407.21 63.4126 408.187 60.8247C409.212 58.2368 409.725 54.6357 409.725 50.0215ZM432.137 78V21.457H446.712L454.366 41.3057C454.781 42.4775 455.245 43.8203 455.757 45.334C456.294 46.8477 456.88 48.5933 457.515 50.5708L459.09 55.5513C458.528 50.644 458.101 46.4448 457.808 42.9536C457.515 39.4624 457.369 36.5327 457.369 34.1646V21.457H471.944V78H457.369L449.678 57.1992C448.873 54.9775 448.14 52.9023 447.481 50.9736C446.846 49.0205 446.285 47.165 445.796 45.4072C446.114 49.3867 446.346 52.8535 446.492 55.8076C446.639 58.7617 446.712 61.3496 446.712 63.5713V78H432.137Z" fill="white"/>
</g>
<defs>
<filter id="filter0_d_22_1527" x="0.955078" y="0.431641" width="490.989" height="98.5571" filterUnits="userSpaceOnUse" color-interpolation-filters="sRGB">
<feFlood flood-opacity="0" result="BackgroundImageFix"/>
<feColorMatrix in="SourceAlpha" type="matrix" values="0 0 0 0 0 0 0 0 0 0 0 0 0 0 0 0 0 0 127 0" result="hardAlpha"/>
<feOffset/>
<feGaussianBlur stdDeviation="10"/>
<feColorMatrix type="matrix" values="0 0 0 0 0.831373 0 0 0 0 0.0196078 0 0 0 0 0.0666667 0 0 0 1 0"/>
<feBlend mode="normal" in2="BackgroundImageFix" result="effect1_dropShadow_22_1527"/>
<feBlend mode="normal" in="SourceGraphic" in2="effect1_dropShadow_22_1527" result="shape"/>
</filter>
</defs>
</svg>
