<svg width="250" height="99" viewBox="0 0 250 99" fill="none" xmlns="http://www.w3.org/2000/svg">
<g filter="url(#filter0_d_22_1523)">
<path d="M43.6938 78H28.4229V35.0068H20V21.457H52.4463V35.0068H43.6938V78ZM56.4014 78V21.457H84.7827V34.7505H71.6724V42.9902H83.4277V55.771H71.6724V64.4136H84.7827V78H56.4014ZM132.061 78H116.277L115.142 70.8223H104.851L103.606 78H87.8223L101.409 21.457H120.085L132.061 78ZM113.347 58.7007L112.358 52.1089C112.334 52.0845 112.285 51.7549 112.212 51.1201C112.163 50.583 111.907 48.459 111.443 44.748C111.394 44.333 111.333 43.7715 111.26 43.0635C111.187 42.3311 111.089 41.4155 110.967 40.3169L110.491 34.9702C110.442 35.4829 110.369 36.0566 110.271 36.6914C110.198 37.3262 110.112 38.022 110.015 38.7788C109.844 40.2925 109.722 41.3423 109.648 41.9282C109.575 42.5142 109.526 42.8682 109.502 42.9902L108.44 49.8384L106.902 58.7007H113.347ZM194.719 78H178.752L177.617 52.2188L177.141 41.9282C176.97 43.9058 176.775 45.7979 176.555 47.6045C176.335 49.3867 176.067 51.1201 175.75 52.8047L170.952 78H158.501L154.399 52.7681C154.155 51.3032 153.826 48.7886 153.411 45.2241C153.362 44.687 153.252 43.5884 153.081 41.9282L152.715 52.3652L151.36 78H135.1L141.692 21.457H160.698L163.884 40.5C164.153 42.0625 164.385 43.7593 164.58 45.5903C164.8 47.4214 164.995 49.4111 165.166 51.5596C165.483 47.9707 165.923 44.7603 166.484 41.9282L170.366 21.457H189.226L194.719 78ZM200.286 76.6084V58.8472C203.289 62.9487 206.536 64.9995 210.027 64.9995C211.345 64.9995 212.419 64.6577 213.25 63.9741C214.08 63.2661 214.495 62.3872 214.495 61.3374C214.495 59.8237 213.591 58.3467 211.785 56.9062L209.294 54.9653C207.634 53.7202 206.218 52.4873 205.046 51.2666C203.875 50.0215 202.922 48.752 202.19 47.458C201.458 46.1396 200.92 44.7847 200.579 43.3931C200.237 42.0015 200.066 40.5366 200.066 38.9985C200.066 36.3618 200.676 33.603 201.897 30.7222C202.507 29.3794 203.215 28.1587 204.021 27.0601C204.827 25.937 205.754 24.9482 206.804 24.0938C209.685 21.6523 213.164 20.4316 217.241 20.4316C220.879 20.4316 224.541 21.396 228.228 23.3247V40.6099C226.982 38.6812 225.566 37.1675 223.979 36.0688C222.393 34.9458 220.83 34.3843 219.292 34.3843C218.12 34.3843 217.156 34.7261 216.399 35.4097C215.618 36.0688 215.227 36.8623 215.227 37.79C215.227 39.3037 216.265 40.8052 218.34 42.2944L220.757 44.0889C223.979 46.4082 226.287 48.7886 227.678 51.23C229.094 53.6714 229.802 56.5278 229.802 59.7993C229.802 65.3657 228.105 69.9556 224.712 73.5688C221.318 77.1821 217.021 78.9888 211.821 78.9888C208.232 78.9888 204.387 78.1953 200.286 76.6084Z" fill="white"/>
</g>
<defs>
<filter id="filter0_d_22_1523" x="0" y="0.431641" width="249.802" height="98.5571" filterUnits="userSpaceOnUse" color-interpolation-filters="sRGB">
<feFlood flood-opacity="0" result="BackgroundImageFix"/>
<feColorMatrix in="SourceAlpha" type="matrix" values="0 0 0 0 0 0 0 0 0 0 0 0 0 0 0 0 0 0 127 0" result="hardAlpha"/>
<feOffset/>
<feGaussianBlur stdDeviation="10"/>
<feColorMatrix type="matrix" values="0 0 0 0 0.831373 0 0 0 0 0.0196078 0 0 0 0 0.0666667 0 0 0 1 0"/>
<feBlend mode="normal" in2="BackgroundImageFix" result="effect1_dropShadow_22_1523"/>
<feBlend mode="normal" in="SourceGraphic" in2="effect1_dropShadow_22_1523" result="shape"/>
</filter>
</defs>
</svg>
