<svg width="246" height="98" viewBox="0 0 246 98" fill="none" xmlns="http://www.w3.org/2000/svg">
<g filter="url(#filter0_d_22_1517)">
<path d="M48.5278 77H32.9639L20 20.457H36.04L38.8232 36.6069C39.873 42.7837 40.7153 49.6929 41.3501 57.3345C41.6187 53.9409 41.9482 50.7671 42.3389 47.813C42.7295 44.8589 43.1934 41.978 43.7305 39.1704L47.356 20.457H63.9453L48.5278 77ZM67.9004 77V20.457H96.2817V33.7505H83.1714V41.9902H94.9268V54.771H83.1714V63.4136H96.2817V77H67.9004ZM102.837 77V20.457H117.412L125.066 40.3057C125.481 41.4775 125.945 42.8203 126.458 44.334C126.995 45.8477 127.581 47.5933 128.215 49.5708L129.79 54.5513C129.229 49.644 128.801 45.4448 128.508 41.9536C128.215 38.4624 128.069 35.5327 128.069 33.1646V20.457H142.644V77H128.069L120.378 56.1992C119.573 53.9775 118.84 51.9023 118.181 49.9736C117.546 48.0205 116.985 46.165 116.497 44.4072C116.814 48.3867 117.046 51.8535 117.192 54.8076C117.339 57.7617 117.412 60.3496 117.412 62.5713V77H102.837ZM173.662 20.457H188.933V60.4473C188.933 63.792 188.408 66.502 187.358 68.5771C186.333 70.75 184.624 72.7153 182.231 74.4731C179.009 76.8169 175.09 77.9888 170.476 77.9888C165.251 77.9888 160.869 76.6948 157.329 74.1069C152.837 70.811 150.591 65.5376 150.591 58.2866V20.457H165.862V56.9316C165.862 59.3975 166.155 61.1431 166.741 62.1685C167.351 63.1938 168.364 63.7065 169.78 63.7065C171.245 63.7065 172.258 63.2305 172.82 62.2783C173.381 61.2773 173.662 59.5073 173.662 56.9683V20.457ZM196.88 77V20.457H225.261V33.7505H212.151V41.9902H223.906V54.771H212.151V63.4136H225.261V77H196.88Z" fill="white"/>
</g>
<defs>
<filter id="filter0_d_22_1517" x="0" y="0.457031" width="245.261" height="97.5317" filterUnits="userSpaceOnUse" color-interpolation-filters="sRGB">
<feFlood flood-opacity="0" result="BackgroundImageFix"/>
<feColorMatrix in="SourceAlpha" type="matrix" values="0 0 0 0 0 0 0 0 0 0 0 0 0 0 0 0 0 0 127 0" result="hardAlpha"/>
<feOffset/>
<feGaussianBlur stdDeviation="10"/>
<feColorMatrix type="matrix" values="0 0 0 0 0.831373 0 0 0 0 0.0196078 0 0 0 0 0.0666667 0 0 0 1 0"/>
<feBlend mode="normal" in2="BackgroundImageFix" result="effect1_dropShadow_22_1517"/>
<feBlend mode="normal" in="SourceGraphic" in2="effect1_dropShadow_22_1517" result="shape"/>
</filter>
</defs>
</svg>
