<svg width="84" height="84" viewBox="0 0 84 84" fill="none" xmlns="http://www.w3.org/2000/svg">
<path d="M45.9281 46.5327C44.4461 47.8697 43.0211 49.1527 41.5981 50.4327C35.7961 55.6747 29.9951 60.9087 24.1951 66.1347C24.0352 66.2601 23.9107 66.425 23.8339 66.6132C23.7571 66.8013 23.7306 67.0062 23.7571 67.2077C23.9961 70.3547 24.2021 73.5077 24.4351 76.6517C24.4567 76.8133 24.4382 76.9778 24.3811 77.1306C24.3241 77.2834 24.2303 77.4198 24.1081 77.5277C23.0221 78.5847 21.9621 79.6687 20.8351 80.7967C20.6351 80.2687 20.4531 79.8117 20.2811 79.3507C18.8957 75.6327 17.5137 71.9144 16.1351 68.1957C16.0875 68.0396 16.0026 67.8973 15.8878 67.7813C15.773 67.6653 15.6317 67.5789 15.4761 67.5297C11.4461 66.037 7.41807 64.537 3.39207 63.0297L2.92407 62.8517C3.00035 62.744 3.08247 62.6405 3.17007 62.5417C4.19507 61.5117 5.21407 60.4767 6.25607 59.4647C6.42009 59.3153 6.6342 59.2329 6.85607 59.2337C9.96907 59.4337 13.0831 59.6467 16.1931 59.8867C16.4646 59.931 16.743 59.9027 17.0001 59.8047C17.2572 59.7067 17.4839 59.5425 17.6571 59.3287C23.9797 52.3014 30.3174 45.2904 36.6701 38.2957C36.8011 38.1487 36.9281 37.9957 37.0971 37.8037L-0.00292969 22.5567C0.12107 22.4127 0.209069 22.2987 0.311069 22.1977C2.33907 20.1644 4.36674 18.131 6.39407 16.0977C6.48281 15.9928 6.5999 15.9157 6.73131 15.8757C6.86272 15.8356 7.0029 15.8342 7.13507 15.8717C18.3051 17.987 29.4751 20.095 40.6451 22.1957C43.3151 22.6957 45.9851 23.1957 48.6541 23.7107C48.8021 23.7534 48.9595 23.7508 49.106 23.7032C49.2525 23.6556 49.3814 23.5652 49.4761 23.4437C53.9141 18.5667 58.3371 13.6727 62.8211 8.83671C66.8331 4.44383 72.2719 1.61474 78.1721 0.851707C79.7754 0.613598 81.3996 0.546555 83.0171 0.651706C83.0171 1.74671 83.1001 2.81371 83.0031 3.86771C82.5834 9.38643 80.4079 14.6258 76.7951 18.8187C75.3354 20.4264 73.7902 21.9543 72.1661 23.3957C68.2581 27.0357 64.3307 30.656 60.3841 34.2567C60.2629 34.3523 60.1729 34.4818 60.1255 34.6287C60.0782 34.7756 60.0756 34.9333 60.1181 35.0817C62.2807 46.5217 64.4397 57.963 66.5951 69.4057C67.0561 71.8477 67.5161 74.2897 67.9571 76.7357C67.9711 76.8272 67.966 76.9206 67.9423 77.0101C67.9185 77.0996 67.8766 77.1832 67.8191 77.2557C65.6924 79.4037 63.5591 81.5434 61.4191 83.6747C61.3709 83.7064 61.3204 83.7344 61.2681 83.7587C56.1601 71.3674 51.0467 58.9587 45.9281 46.5327Z" fill="white"/>
</svg>
