<svg width="93" height="93" viewBox="0 0 93 93" fill="none" xmlns="http://www.w3.org/2000/svg">
<path d="M9.81407 38.4932C8.00707 38.4932 6.29507 38.4302 4.58307 38.4932C4.09816 38.5549 3.60555 38.5047 3.14305 38.3465C2.68055 38.1882 2.26046 37.9261 1.915 37.5803C1.56954 37.2345 1.30791 36.8141 1.15018 36.3514C0.992443 35.8887 0.942805 35.396 1.00507 34.9112C1.10507 31.3292 1.03707 27.7112 1.03707 24.1332C0.986928 23.6907 1.0366 23.2426 1.18242 22.8218C1.32825 22.4011 1.56653 22.0183 1.87974 21.7018C2.19295 21.3852 2.57313 21.1428 2.99232 20.9925C3.41152 20.8422 3.85907 20.7878 4.30207 20.8332C5.82407 20.8012 7.37707 20.8332 8.90207 20.8332H9.81407V19.7232C9.84607 16.6162 9.68707 13.4782 9.97307 10.3712C10.3137 7.67604 11.5946 5.18756 13.59 3.34414C15.5854 1.50072 18.1674 0.420655 20.8811 0.294208C21.4201 0.262208 21.9271 0.262208 22.4661 0.262208H71.0321C72.9398 0.190612 74.8365 0.582963 76.5592 1.40559C78.282 2.22822 79.7794 3.45656 80.9231 4.98521C82.4583 6.99686 83.2833 9.4607 83.2691 11.9912C83.3011 14.9072 83.2691 17.7912 83.2691 20.8042C83.5643 20.8302 83.8607 20.8408 84.1571 20.8362C85.7101 20.8362 87.2641 20.8682 88.8171 20.8362C89.2507 20.8122 89.6844 20.8805 90.0897 21.0366C90.4949 21.1926 90.8625 21.4328 91.1681 21.7414C91.4736 22.05 91.7102 22.4199 91.8623 22.8267C92.0143 23.2335 92.0783 23.6679 92.0501 24.1012C91.9231 27.8422 91.9501 31.6142 92.0501 35.3552C92.0663 35.769 91.9972 36.1817 91.8473 36.5677C91.6973 36.9537 91.4695 37.3048 91.1781 37.599C90.8868 37.8933 90.538 38.1245 90.1535 38.2784C89.769 38.4322 89.357 38.5053 88.9431 38.4932H83.3001V39.5392C83.3001 48.7322 83.2681 65.2172 83.3321 74.4102C83.3806 75.2694 83.1973 76.1259 82.8013 76.89C82.4053 77.654 81.8111 78.2976 81.0811 78.7532C80.8228 78.9004 80.6132 79.1198 80.478 79.3845C80.3428 79.6492 80.2879 79.9477 80.3201 80.2432C80.3521 83.3819 80.3521 86.5202 80.3201 89.6582C80.3628 90.0739 80.3129 90.4938 80.1739 90.8878C80.0349 91.2819 79.8103 91.6402 79.5163 91.937C79.2222 92.2339 78.866 92.4618 78.4733 92.6045C78.0806 92.7472 77.6611 92.8011 77.2451 92.7622H68.6221C68.2321 92.7832 67.8421 92.7224 67.4771 92.5837C67.1121 92.4451 66.7801 92.2315 66.5024 91.9569C66.2248 91.6823 66.0077 91.3527 65.865 90.9892C65.7224 90.6257 65.6573 90.2363 65.6741 89.8462C65.6421 87.9122 65.6741 85.9792 65.6741 84.0762V83.1252C52.9692 84.3299 40.1789 84.3299 27.4741 83.1252V89.5922C27.4857 90.01 27.4321 90.427 27.3151 90.8282C27.1373 91.4146 26.7702 91.9255 26.2712 92.281C25.7721 92.6366 25.1693 92.8167 24.5571 92.7932H15.7771C15.38 92.815 14.9828 92.7529 14.6114 92.6109C14.2399 92.4688 13.9026 92.2501 13.6214 91.9689C13.3402 91.6877 13.1215 91.3504 12.9794 90.9789C12.8374 90.6075 12.7752 90.2103 12.7971 89.8132V80.0842C12.8185 79.8519 12.7734 79.6183 12.6672 79.4107C12.561 79.203 12.3979 79.0298 12.1971 78.9112C11.4083 78.4523 10.7643 77.781 10.3384 76.9739C9.91245 76.1669 9.72178 75.2564 9.78807 74.3462C9.85107 65.2162 9.82007 48.7642 9.82007 39.6342C9.81407 39.2542 9.81407 38.9372 9.81407 38.4932ZM45.0651 15.0032H12.8291V51.3322H45.0691L45.0651 15.0032ZM48.0451 51.3322H80.2851V15.0032H48.0491L48.0451 51.3322ZM27.4431 63.2832C27.4629 62.5111 27.3286 61.7428 27.048 61.0232C26.7674 60.3035 26.3462 59.6471 25.809 59.0922C25.2718 58.5372 24.6293 58.095 23.9191 57.7913C23.209 57.4875 22.4454 57.3284 21.6731 57.3232C20.5133 57.3046 19.374 57.6302 18.3994 58.2591C17.4247 58.8879 16.6583 59.7916 16.1972 60.8559C15.7361 61.9202 15.6009 63.0974 15.8088 64.2385C16.0167 65.3797 16.5583 66.4336 17.365 67.2669C18.1718 68.1003 19.2076 68.6757 20.3414 68.9204C21.4753 69.1652 22.6562 69.0682 23.7349 68.6418C24.8136 68.2154 25.7416 67.4787 26.4017 66.5249C27.0617 65.5711 27.4241 64.443 27.4431 63.2832ZM71.7921 69.0212C72.9511 68.967 74.0679 68.5696 75.0006 67.8795C75.9333 67.1893 76.64 66.2376 77.0307 65.1451C77.4215 64.0526 77.4788 62.8686 77.1953 61.7434C76.9118 60.6183 76.3004 59.6028 75.4386 58.8258C74.5769 58.0489 73.5037 57.5455 72.3553 57.3797C71.2069 57.2139 70.0351 57.393 68.9888 57.8945C67.9425 58.3959 67.0687 59.197 66.4785 60.196C65.8883 61.1949 65.6083 62.3468 65.6741 63.5052C65.7597 65.0459 66.4508 66.4902 67.5968 67.5235C68.7428 68.5567 70.2508 69.0951 71.7921 69.0212ZM46.5591 63.1562H59.0801C59.7461 63.1562 60.4111 63.1882 61.0451 63.1242C61.439 63.1055 61.8213 62.9853 62.1551 62.7752C62.403 62.6124 62.5863 62.3682 62.6732 62.0846C62.7602 61.801 62.7452 61.496 62.6311 61.2222C62.5146 60.8809 62.2837 60.5903 61.9776 60.3997C61.6714 60.2091 61.3088 60.1301 60.9511 60.1762H32.1351C31.0571 60.1762 30.4231 60.7152 30.3911 61.6032C30.3591 62.4912 30.9911 63.0612 32.0711 63.0932H32.7711C37.3651 63.1562 41.9621 63.1562 46.5591 63.1562ZM46.5591 69.0562H57.5591C57.8448 69.0614 58.1305 69.0507 58.4151 69.0242C58.7753 68.9962 59.1119 68.834 59.3583 68.5698C59.6048 68.3056 59.7432 67.9585 59.7461 67.5972C59.7585 67.2232 59.6219 66.8595 59.3663 66.5861C59.1107 66.3127 58.7571 66.152 58.3831 66.1392C58.1196 66.1127 57.8548 66.102 57.5901 66.1072H35.4901C34.0321 66.1072 33.3031 66.6142 33.3341 67.5972C33.3651 68.5802 34.0341 69.0552 35.4581 69.0552L46.5591 69.0562ZM46.4951 9.07521H57.6541C59.0811 9.07521 59.7461 8.63121 59.7461 7.64821C59.7461 6.66521 59.0801 6.19021 57.6541 6.19021H35.4001C35.1144 6.18503 34.8286 6.19572 34.5441 6.22221C34.2105 6.27552 33.9066 6.44509 33.6861 6.70091C33.4656 6.95673 33.3426 7.28231 33.339 7.62005C33.3354 7.95779 33.4514 8.28592 33.6665 8.54637C33.8815 8.80682 34.1818 8.98281 34.5141 9.04321C34.7986 9.0697 35.0844 9.08038 35.3701 9.07521H46.4951Z" fill="white"/>
</svg>
