<svg width="84" height="67" viewBox="0 0 84 67" fill="none" xmlns="http://www.w3.org/2000/svg">
<path d="M6.66088 53.6591H0.0318828C0.0208828 53.4391 0.00488281 53.2591 0.00488281 53.0861C0.00488281 46.1041 0.00488281 39.1221 0.00488281 32.1401C0.0309505 30.2406 0.6364 28.3942 1.74025 26.8481C2.84411 25.3019 4.39374 24.1297 6.18188 23.4881C6.28363 23.4353 6.39347 23.3998 6.50688 23.3831C7.41388 23.3781 7.66488 22.7651 7.93688 22.0831C10.0462 16.8271 12.1705 11.5758 14.3099 6.32913C14.8838 4.77882 15.8754 3.41755 17.1751 2.396C18.4748 1.37446 20.0319 0.732474 21.6739 0.541125C22.4165 0.43651 23.166 0.388038 23.9159 0.396125C35.6272 0.388792 47.3375 0.388792 59.0469 0.396125C60.3728 0.365769 61.6955 0.540843 62.9679 0.915126C64.2607 1.306 65.4458 1.99033 66.4305 2.91472C67.4153 3.83911 68.1731 4.97855 68.6449 6.24412C70.8755 11.7108 73.0939 17.1835 75.2999 22.6621C75.3523 22.8156 75.4448 22.9522 75.568 23.0577C75.6911 23.1632 75.8402 23.2338 75.9999 23.2621C77.6809 23.667 79.213 24.5392 80.4195 25.7778C81.6259 27.0164 82.4574 28.5711 82.8179 30.2621C82.966 30.8697 83.0409 31.4928 83.0409 32.1181C83.0569 39.1355 83.0605 46.1541 83.0519 53.1741V53.6201H76.4219C76.4109 53.8751 76.3929 54.0701 76.3929 54.2641C76.3929 56.4131 76.4299 58.5641 76.3809 60.7121C76.4275 61.8493 76.1302 62.9741 75.5277 63.9398C74.9253 64.9054 74.0458 65.667 73.0039 66.1251C69.3329 67.8471 64.1039 65.9891 63.9229 60.8251C63.8439 58.6581 63.9069 56.4881 63.9069 54.3251V53.6901H19.1319C19.1209 53.9081 19.1049 54.1201 19.1019 54.3331C19.0789 56.7031 19.1479 59.0771 19.0109 61.4401C18.9143 62.6374 18.4414 63.7734 17.6599 64.6856C16.8783 65.5977 15.8282 66.2392 14.6599 66.5181C13.4443 66.8773 12.1495 66.8681 10.9392 66.4916C9.72888 66.1152 8.6573 65.3884 7.85988 64.4031C7.04299 63.3156 6.61986 61.9827 6.65988 60.6231C6.65288 58.5231 6.65988 56.4341 6.65988 54.3391L6.66088 53.6591ZM68.4659 22.9831C68.0129 21.8191 67.5839 20.7241 67.1659 19.6261C65.8489 16.2261 64.5409 12.8141 63.2129 9.41213C62.4619 7.48813 61.4429 6.51213 58.8919 6.51913C47.2819 6.55613 35.6709 6.53513 24.0609 6.54013C23.6005 6.52695 23.1399 6.55607 22.6849 6.62713C22.0107 6.77531 21.3905 7.1069 20.8929 7.5853C20.3953 8.06369 20.0395 8.67029 19.8649 9.33813C18.1762 13.6875 16.4922 18.0381 14.8129 22.3901C14.7419 22.5741 14.6809 22.7591 14.6039 22.9831H68.4659ZM70.0099 29.4671C69.2575 29.4508 68.5094 29.5833 67.8084 29.857C67.1074 30.1307 66.4674 30.5401 65.9251 31.0619C65.3828 31.5836 64.9489 32.2074 64.6484 32.8973C64.3479 33.5872 64.1866 34.3297 64.1739 35.0821C64.2022 36.5918 64.8204 38.0304 65.896 39.09C66.9717 40.1496 68.4194 40.7461 69.9294 40.7517C71.4393 40.7573 72.8914 40.1717 73.9749 39.1201C75.0585 38.0685 75.6873 36.6345 75.7269 35.1251C75.7248 34.3777 75.5751 33.6381 75.2863 32.9487C74.9975 32.2594 74.5754 31.6338 74.0442 31.1081C73.5129 30.5823 72.8831 30.1667 72.1907 29.8851C71.4984 29.6035 70.7573 29.4615 70.0099 29.4671ZM13.0899 29.4671C12.3435 29.4535 11.6019 29.5881 10.9079 29.8631C10.2139 30.1381 9.58144 30.5481 9.04702 31.0693C8.51261 31.5904 8.08691 32.2125 7.79458 32.8993C7.50225 33.5862 7.34911 34.3242 7.34401 35.0707C7.33892 35.8171 7.48198 36.5572 7.76491 37.248C8.04784 37.9388 8.46501 38.5665 8.99226 39.095C9.51952 39.6234 10.1464 40.042 10.8365 40.3264C11.5267 40.6109 12.2664 40.7556 13.0129 40.7521C13.7594 40.7657 14.5012 40.6311 15.1953 40.356C15.8894 40.0809 16.522 39.6708 17.0565 39.1494C17.591 38.6281 18.0167 38.0059 18.3091 37.3189C18.6014 36.6319 18.7545 35.8937 18.7596 35.1471C18.7646 34.4004 18.6214 33.6603 18.3384 32.9694C18.0553 32.2785 17.638 31.6506 17.1106 31.1221C16.5831 30.5936 15.9561 30.1751 15.2658 29.8906C14.5754 29.6062 13.8355 29.4616 13.0889 29.4651" fill="white"/>
</svg>
