<svg width="72" height="78" viewBox="0 0 72 78" fill="none" xmlns="http://www.w3.org/2000/svg">
<mask id="mask0_234_700" style="mask-type:luminance" maskUnits="userSpaceOnUse" x="0" y="0" width="72" height="72">
<path d="M0 71.591H71.588V0H0V71.591Z" fill="white"/>
</mask>
<g mask="url(#mask0_234_700)">
<path d="M50.33 6.38448V1.72548C50.3178 1.50612 50.3501 1.28656 50.425 1.08001C50.4999 0.873471 50.6158 0.684212 50.7658 0.523624C50.9157 0.363037 51.0966 0.234438 51.2975 0.145566C51.4985 0.0566943 51.7153 0.00938513 51.935 0.00648487C52.1572 0.0027328 52.3779 0.0444783 52.5834 0.129156C52.7889 0.213833 52.975 0.339652 53.1301 0.498877C53.2852 0.658103 53.4061 0.84737 53.4853 1.05504C53.5646 1.26272 53.6005 1.48441 53.591 1.70648V6.40648H54.018C56.796 6.40648 59.573 6.39648 62.349 6.40648C63.8811 6.37128 65.3967 6.7303 66.7503 7.44911C68.1038 8.16792 69.25 9.22241 70.079 10.5115C71.0646 11.9319 71.5884 13.6216 71.579 15.3505C71.5896 31.1138 71.5896 46.8782 71.579 62.6435C71.5405 64.9494 70.6278 67.1547 69.0256 68.8135C67.4234 70.4723 65.2512 71.4609 62.948 71.5795C62.738 71.5895 62.528 71.5915 62.319 71.5915C44.641 71.5915 26.963 71.5915 9.28496 71.5915C7.76587 71.6297 6.26203 71.2807 4.91498 70.5775C3.56794 69.8742 2.42198 68.8398 1.58496 67.5715C0.534397 66.0685 -0.0143937 64.272 0.0169601 62.4385C0.0202934 53.9778 0.0202934 45.5178 0.0169601 37.0585C0.0169601 29.9405 0.0589612 22.8225 0.000961229 15.7055C-0.020649 13.5719 0.698908 11.4969 2.03681 9.83474C3.37471 8.17258 5.24801 7.02627 7.33696 6.59148C7.99084 6.47188 8.65424 6.41196 9.31896 6.41248C11.99 6.39348 14.663 6.40448 17.335 6.40448H17.749V1.69348C17.7394 1.48027 17.7721 1.26727 17.845 1.0667C17.918 0.866127 18.0298 0.681921 18.1741 0.524643C18.3183 0.367365 18.4922 0.240106 18.6858 0.150161C18.8793 0.060215 19.0887 0.00935129 19.302 0.000484824C19.5268 -0.00903687 19.7512 0.0280501 19.961 0.109415C20.1709 0.190781 20.3616 0.314666 20.5213 0.473286C20.6809 0.631905 20.806 0.821832 20.8888 1.03113C20.9715 1.24043 21.01 1.46458 21.002 1.68948C21.002 3.11282 21.002 4.53648 21.002 5.96048V6.38448H50.33ZM3.25896 27.0325V27.3875C3.25896 39.0915 3.25896 50.7958 3.25896 62.5005C3.2586 62.8502 3.29209 63.1992 3.35896 63.5425C3.61217 64.9348 4.36123 66.1882 5.46747 67.0707C6.57371 67.9531 7.96222 68.405 9.37596 68.3425C26.9966 68.3425 44.6173 68.3425 62.238 68.3425C62.6231 68.35 63.0082 68.3242 63.389 68.2655C64.7829 68.0565 66.0527 67.3464 66.9605 66.2681C67.8682 65.1899 68.3516 63.8176 68.32 62.4085C68.32 50.7512 68.32 39.0935 68.32 27.4355V27.0355L3.25896 27.0325ZM53.591 9.65448V10.0985C53.591 11.5105 53.591 12.9225 53.591 14.3345C53.6006 14.5566 53.5644 14.7783 53.4846 14.9858C53.4047 15.1933 53.283 15.3821 53.127 15.5405C52.8976 15.7759 52.6025 15.9365 52.2803 16.0011C51.958 16.0657 51.6238 16.0313 51.3215 15.9025C51.0191 15.7736 50.7628 15.5564 50.5862 15.2792C50.4096 15.002 50.321 14.6779 50.332 14.3495C50.325 12.9385 50.332 11.5265 50.332 10.1145V9.67748H21.005V10.1055C21.005 11.5055 21.005 12.9055 21.005 14.3055C21.0188 14.5275 20.9869 14.75 20.9115 14.9592C20.836 15.1685 20.7184 15.36 20.5661 15.5221C20.4138 15.6842 20.2298 15.8134 20.0257 15.9017C19.8215 15.99 19.6014 16.0355 19.379 16.0355C19.1565 16.0355 18.9365 15.99 18.7322 15.9019C18.528 15.8137 18.3439 15.6848 18.1913 15.523C18.0387 15.3612 17.9207 15.1699 17.8446 14.9609C17.7686 14.7519 17.736 14.5295 17.749 14.3075C17.749 12.8962 17.749 11.4842 17.749 10.0715V9.67148C17.605 9.66549 17.491 9.65548 17.376 9.65548C14.6926 9.65548 12.009 9.65548 9.32496 9.65548C8.98667 9.65012 8.64843 9.6695 8.31296 9.71348C6.89981 9.90835 5.60646 10.6126 4.67599 11.6939C3.74551 12.7752 3.24196 14.1591 3.25996 15.5855C3.25996 18.1755 3.25996 20.7655 3.25996 23.3555V23.7435H68.3C68.308 23.6435 68.323 23.5695 68.323 23.4905C68.323 20.7835 68.333 18.0765 68.323 15.3695C68.3243 14.1814 67.9381 13.0252 67.223 12.0765C66.6637 11.2942 65.9189 10.6631 65.0554 10.2398C64.1919 9.81657 63.2369 9.6144 62.276 9.65148C59.522 9.65848 56.768 9.65148 54.015 9.65148L53.591 9.65448Z" fill="#FFCC00"/>
</g>
<path d="M24.9106 55.7549H33.4561C33.4561 57.7005 34.1699 58.6733 35.5977 58.6733C36.3115 58.6733 36.8924 58.4004 37.3403 57.8545C37.7882 57.2946 38.0122 56.5667 38.0122 55.6709C38.0122 53.3893 36.8224 52.2485 34.4429 52.2485C34.2749 52.2485 34.0649 52.2625 33.813 52.2905C33.561 52.3045 33.2741 52.3255 32.9521 52.3535V45.4458C33.1901 45.4598 33.3931 45.4738 33.561 45.4878C33.743 45.4878 33.89 45.4878 34.002 45.4878C36.3955 45.4878 37.5923 44.389 37.5923 42.1914C37.5923 40.3997 36.9694 39.5039 35.7236 39.5039C34.7438 39.5039 34.1839 40.2248 34.0439 41.6665L34.002 42.1074H25.5405C25.7785 39.084 26.8353 36.6974 28.7109 34.9478C30.5726 33.1701 33.0151 32.2812 36.0386 32.2812C38.922 32.2812 41.3156 33.1911 43.2192 35.0107C45.1649 36.8164 46.1377 39.049 46.1377 41.7085C46.1377 44.6899 44.8289 46.9645 42.2114 48.5322C45.1089 50.1979 46.5576 52.7035 46.5576 56.0488C46.5576 58.9463 45.5288 61.3049 43.4712 63.1245C41.4416 64.9442 38.8031 65.854 35.5557 65.854C32.3783 65.854 29.8167 64.9652 27.8711 63.1875C25.8975 61.4098 24.9106 59.0933 24.9106 56.2378V55.7549Z" fill="white"/>
<path d="M29.2593 18.4082C29.6209 18.4082 29.9181 18.3706 30.1509 18.2954C30.5662 18.1558 30.9064 17.8872 31.1714 17.4897C31.3826 17.1711 31.5348 16.7629 31.6279 16.2651C31.6816 15.9679 31.7085 15.6922 31.7085 15.438C31.7085 14.4604 31.5133 13.7013 31.123 13.1606C30.7363 12.62 30.1115 12.3496 29.2485 12.3496H27.3525V18.4082H29.2593ZM26.2783 11.4312H29.4741C30.5591 11.4312 31.4006 11.8161 31.9985 12.5859C32.5321 13.2806 32.7988 14.1704 32.7988 15.2554C32.7988 16.0933 32.6413 16.8506 32.3262 17.5273C31.7712 18.7233 30.8169 19.3213 29.4634 19.3213H26.2783V11.4312Z" fill="white"/>
<path d="M37.4355 16.0879L36.2378 12.6021L34.9648 16.0879H37.4355ZM35.6792 11.4312H36.8877L39.7505 19.3213H38.5796L37.7793 16.958H34.6587L33.8047 19.3213H32.709L35.6792 11.4312ZM39.2939 11.4312H40.54L42.8066 15.2231L45.0732 11.4312H46.3247L43.3438 16.1416V19.3213H42.2749V16.1416L39.2939 11.4312Z" fill="white"/>
</svg>
