<svg width="72" height="78" viewBox="0 0 72 78" fill="none" xmlns="http://www.w3.org/2000/svg">
<mask id="mask0_234_702" style="mask-type:luminance" maskUnits="userSpaceOnUse" x="0" y="0" width="72" height="72">
<path d="M0 71.591H71.588V0H0V71.591Z" fill="white"/>
</mask>
<g mask="url(#mask0_234_702)">
<path d="M50.3295 6.38546V1.72646C50.3173 1.50709 50.3497 1.28753 50.4246 1.08099C50.4995 0.874447 50.6154 0.685189 50.7653 0.524601C50.9152 0.364013 51.0961 0.235415 51.297 0.146543C51.498 0.0576709 51.7148 0.0103617 51.9345 0.00746143C52.1567 0.00370936 52.3774 0.0454549 52.5829 0.130132C52.7884 0.214809 52.9745 0.340628 53.1296 0.499854C53.2847 0.65908 53.4056 0.848347 53.4848 1.05602C53.5641 1.26369 53.6001 1.48538 53.5905 1.70746V6.40746H54.0175C56.7955 6.40746 59.5725 6.39746 62.3485 6.40746C63.8807 6.37226 65.3962 6.73128 66.7498 7.45009C68.1033 8.1689 69.2495 9.22339 70.0785 10.5125C71.0641 11.9329 71.5879 13.6226 71.5785 15.3515C71.5891 31.1148 71.5891 46.8791 71.5785 62.6445C71.54 64.9504 70.6273 67.1557 69.0251 68.8145C67.4229 70.4733 65.2507 71.4619 62.9475 71.5805C62.7375 71.5905 62.5275 71.5925 62.3185 71.5925C44.6405 71.5925 26.9625 71.5925 9.28447 71.5925C7.76538 71.6307 6.26154 71.2817 4.91449 70.5784C3.56745 69.8752 2.42149 68.8407 1.58447 67.5725C0.533908 66.0695 -0.014882 64.2729 0.0164718 62.4395C0.0198051 53.9788 0.0198051 45.5188 0.0164718 37.0595C0.0164718 29.9415 0.0584729 22.8235 0.000472947 15.7065C-0.0211373 13.5729 0.69842 11.4979 2.03632 9.83571C3.37422 8.17355 5.24752 7.02725 7.33648 6.59246C7.99035 6.47285 8.65375 6.41294 9.31847 6.41346C11.9895 6.39446 14.6625 6.40546 17.3345 6.40546H17.7485V1.69446C17.7389 1.48125 17.7716 1.26825 17.8445 1.06768C17.9175 0.867103 18.0293 0.682898 18.1736 0.52562C18.3178 0.368342 18.4917 0.241083 18.6853 0.151137C18.8788 0.0611915 19.0882 0.0103278 19.3015 0.00146139C19.5263 -0.00806031 19.7507 0.0290266 19.9605 0.110392C20.1704 0.191757 20.3611 0.315642 20.5208 0.474262C20.6804 0.632882 20.8055 0.822808 20.8883 1.03211C20.971 1.24141 21.0095 1.46555 21.0015 1.69046C21.0015 3.11379 21.0015 4.53746 21.0015 5.96146V6.38546H50.3295ZM3.25847 27.0335V27.3885C3.25847 39.0925 3.25847 50.7968 3.25847 62.5015C3.25811 62.8512 3.2916 63.2002 3.35847 63.5435C3.61169 64.9357 4.36074 66.1891 5.46698 67.0716C6.57323 67.9541 7.96173 68.406 9.37547 68.3435C26.9961 68.3435 44.6168 68.3435 62.2375 68.3435C62.6226 68.3509 63.0077 68.3252 63.3885 68.2665C64.7824 68.0575 66.0522 67.3473 66.96 66.2691C67.8678 65.1909 68.3511 63.8186 68.3195 62.4095C68.3195 50.7521 68.3195 39.0945 68.3195 27.4365V27.0365L3.25847 27.0335ZM53.5905 9.65546V10.0995C53.5905 11.5115 53.5905 12.9235 53.5905 14.3355C53.6001 14.5576 53.5639 14.7793 53.4841 14.9868C53.4043 15.1943 53.2825 15.3831 53.1265 15.5415C52.8972 15.7769 52.602 15.9374 52.2798 16.002C51.9576 16.0666 51.6233 16.0323 51.321 15.9034C51.0186 15.7746 50.7623 15.5573 50.5857 15.2802C50.4091 15.003 50.3205 14.6789 50.3315 14.3505C50.3245 12.9395 50.3315 11.5275 50.3315 10.1155V9.67846H21.0045V10.1065C21.0045 11.5065 21.0045 12.9065 21.0045 14.3065C21.0183 14.5285 20.9864 14.751 20.911 14.9602C20.8355 15.1694 20.718 15.361 20.5656 15.5231C20.4133 15.6852 20.2293 15.8144 20.0252 15.9027C19.821 15.9909 19.6009 16.0365 19.3785 16.0365C19.156 16.0364 18.936 15.991 18.7317 15.9028C18.5275 15.8147 18.3434 15.6858 18.1908 15.524C18.0382 15.3622 17.9202 15.1709 17.8442 14.9619C17.7681 14.7529 17.7355 14.5305 17.7485 14.3085C17.7485 12.8971 17.7485 11.4851 17.7485 10.0725V9.67246C17.6045 9.66646 17.4905 9.65646 17.3755 9.65646C14.6921 9.65646 12.0085 9.65646 9.32447 9.65646C8.98618 9.65109 8.64794 9.67048 8.31247 9.71446C6.89932 9.90933 5.60598 10.6136 4.6755 11.6949C3.74502 12.7762 3.24147 14.16 3.25947 15.5865C3.25947 18.1765 3.25947 20.7665 3.25947 23.3565V23.7445H68.2995C68.3075 23.6445 68.3225 23.5705 68.3225 23.4915C68.3225 20.7845 68.3325 18.0775 68.3225 15.3705C68.3239 14.1823 67.9377 13.0262 67.2225 12.0775C66.6632 11.2952 65.9184 10.6641 65.0549 10.2408C64.1915 9.81755 63.2364 9.61538 62.2755 9.65246C59.5215 9.65946 56.7675 9.65246 54.0145 9.65246L53.5905 9.65546Z" fill="#FFCC00"/>
</g>
<path d="M40.7495 65.2871H31.9941V40.4907H28.4878V32.8691H40.7495V65.2871Z" fill="white"/>
<path d="M29.2593 18.4082C29.6209 18.4082 29.9181 18.3706 30.1509 18.2954C30.5662 18.1558 30.9064 17.8872 31.1714 17.4897C31.3826 17.1711 31.5348 16.7629 31.6279 16.2651C31.6816 15.9679 31.7085 15.6922 31.7085 15.438C31.7085 14.4604 31.5133 13.7013 31.123 13.1606C30.7363 12.62 30.1115 12.3496 29.2485 12.3496H27.3525V18.4082H29.2593ZM26.2783 11.4312H29.4741C30.5591 11.4312 31.4006 11.8161 31.9985 12.5859C32.5321 13.2806 32.7988 14.1704 32.7988 15.2554C32.7988 16.0933 32.6413 16.8506 32.3262 17.5273C31.7712 18.7233 30.8169 19.3213 29.4634 19.3213H26.2783V11.4312Z" fill="white"/>
<path d="M37.4355 16.0879L36.2378 12.6021L34.9648 16.0879H37.4355ZM35.6792 11.4312H36.8877L39.7505 19.3213H38.5796L37.7793 16.958H34.6587L33.8047 19.3213H32.709L35.6792 11.4312ZM39.2939 11.4312H40.54L42.8066 15.2231L45.0732 11.4312H46.3247L43.3438 16.1416V19.3213H42.2749V16.1416L39.2939 11.4312Z" fill="white"/>
</svg>
