<svg width="28" height="34" viewBox="0 0 28 34" fill="none" xmlns="http://www.w3.org/2000/svg">
<path d="M22.1201 8.9589C21.4881 7.86228 20.6463 6.9009 19.6428 6.12964C18.6392 5.35839 17.4935 4.79238 16.2712 4.46393C15.0489 4.13548 13.7738 4.05103 12.5189 4.2154C11.2639 4.37977 10.0536 4.78974 8.95709 5.4219C7.01055 6.54364 5.51709 8.31021 4.73485 10.4163C3.95262 12.5223 3.93077 14.8355 4.67309 16.9559L6.56409 16.0829C6.52909 15.9739 6.49709 15.8589 6.46409 15.7349C6.20684 14.7753 6.14114 13.7744 6.27074 12.7893C6.40033 11.8043 6.72269 10.8544 7.2194 9.994C7.71611 9.13356 8.37744 8.37939 9.16563 7.77455C9.95382 7.16971 10.8534 6.72605 11.8131 6.4689C12.7729 6.21134 13.7741 6.1454 14.7594 6.27484C15.7447 6.40428 16.6949 6.72656 17.5557 7.22328C18.4164 7.72001 19.1709 8.38144 19.7759 9.16979C20.381 9.95815 20.8248 10.858 21.0821 11.8179C21.5134 13.4266 21.4018 15.1327 20.7646 16.6715C20.1275 18.2103 19.0004 19.4959 17.5581 20.3289L18.6011 22.1189C20.8117 20.8394 22.4241 18.7347 23.0839 16.2671C23.7437 13.7996 23.3971 11.171 22.1201 8.9589Z" fill="#FFCC00"/>
<path d="M25.7019 6.88717C24.4936 4.79363 22.7558 3.05478 20.6629 1.84517C17.499 0.0187603 13.7391 -0.476096 10.2103 0.469441C6.68151 1.41498 3.6728 3.72347 1.84593 6.88717C0.822086 8.66051 0.206381 10.6398 0.043604 12.681C-0.119173 14.7222 0.175069 16.774 0.904932 18.6872L2.78193 17.8142C2.66193 17.4855 2.55526 17.1522 2.46193 16.8142C2.06435 15.3294 1.96321 13.7809 2.16429 12.2571C2.36538 10.7333 2.86475 9.26397 3.63386 7.9332C4.40298 6.60243 5.42677 5.43624 6.64675 4.50127C7.86672 3.56631 9.25897 2.88088 10.7439 2.48417C12.2282 2.08646 13.7763 1.98503 15.2997 2.18566C16.8232 2.3863 18.2922 2.88507 19.6229 3.65349C20.9536 4.42191 22.1199 5.44493 23.0552 6.66414C23.9905 7.88334 24.6765 9.27484 25.0739 10.7592C25.7394 13.2455 25.5665 15.8818 24.5819 18.2598C23.5973 20.6379 21.8561 22.6249 19.6279 23.9132L20.6709 25.7032C23.8327 23.8747 26.1388 20.8653 27.0823 17.3368C28.0257 13.8084 27.5292 10.0496 25.7019 6.88717Z" fill="#FFCC00"/>
<path d="M15.5011 16.7617L16.5441 18.5557C17.1714 18.193 17.7212 17.7103 18.162 17.1351C18.6027 16.56 18.9259 15.9036 19.113 15.2036C19.3001 14.5035 19.3475 13.7734 19.2525 13.0551C19.1574 12.3367 18.9218 11.6441 18.5591 11.0167C18.1964 10.3894 17.7137 9.83968 17.1385 9.39891C16.5634 8.95814 15.907 8.63498 15.2069 8.44787C14.5069 8.26076 13.7768 8.21337 13.0584 8.3084C12.3401 8.40344 11.6474 8.63904 11.0201 9.00175C9.96955 9.60876 9.14833 10.5451 8.68357 11.6659C8.2188 12.7867 8.1364 14.0294 8.44912 15.2017L10.3751 14.3117C10.3051 13.8643 10.3239 13.4073 10.4305 12.9671C10.5371 12.5269 10.7293 12.112 10.9963 11.7461C11.2633 11.3802 11.5998 11.0705 11.9865 10.8347C12.3732 10.5989 12.8026 10.4416 13.2501 10.3717C14.1534 10.2296 15.0762 10.4521 15.8155 10.9904C16.5548 11.5286 17.0499 12.3384 17.1921 13.2417C17.2996 13.93 17.1961 14.6347 16.8953 15.263C16.5946 15.8913 16.1106 16.4138 15.5071 16.7617H15.5011Z" fill="#FFCC00"/>
<path d="M17.5719 23.7949C17.2553 23.6157 16.881 23.5676 16.5294 23.6611C16.1778 23.7546 15.8768 23.9821 15.6909 24.2949L16.2119 23.3869C16.2856 23.2198 16.3256 23.0398 16.3297 22.8572C16.3338 22.6747 16.3018 22.4931 16.2357 22.3228C16.1696 22.1526 16.0706 21.9971 15.9443 21.8651C15.8181 21.7332 15.6671 21.6274 15.4999 21.5539C15.2117 21.4266 14.8887 21.4009 14.584 21.4813C14.2793 21.5616 14.0109 21.743 13.8229 21.9959L14.2299 21.2959C14.45 20.9999 14.5435 20.6286 14.4899 20.2637C14.4362 19.8987 14.2398 19.57 13.9439 19.3499C13.7974 19.2408 13.6308 19.1616 13.4537 19.1169C13.2766 19.0723 13.0924 19.0629 12.9116 19.0895C12.7309 19.1161 12.5572 19.178 12.4004 19.2717C12.2436 19.3655 12.1068 19.4892 11.9979 19.6359C11.9357 19.7194 11.8831 19.8096 11.8409 19.9049L14.9699 14.4629C15.1931 14.1691 15.2904 13.7988 15.2405 13.4333C15.1906 13.0678 14.9976 12.7371 14.7039 12.5139C14.4102 12.2907 14.0398 12.1934 13.6743 12.2433C13.3088 12.2931 12.9781 12.4862 12.7549 12.7799C12.6865 12.8699 12.6294 12.9679 12.5849 13.0719L6.38491 23.8499C6.166 23.4856 6.04042 23.073 6.01932 22.6485C5.99821 22.2241 6.08223 21.801 6.26391 21.4169C6.41027 21.1122 6.49501 20.7816 6.51328 20.4441C6.53155 20.1066 6.48299 19.7688 6.37038 19.4501C6.25777 19.1314 6.08333 18.8381 5.85707 18.587C5.63081 18.3359 5.35719 18.132 5.05191 17.9869L4.45691 19.0299C-9.03606e-05 26.7899 3.69591 31.1919 5.99391 32.5299C7.61008 33.4651 9.53153 33.7202 11.3357 33.239C13.1399 32.7578 14.6791 31.5797 15.6149 29.9639V29.9389L18.0489 25.6869C18.2335 25.372 18.287 24.9972 18.1978 24.6432C18.1085 24.2893 17.8838 23.9846 17.5719 23.7949Z" fill="#FFCC00"/>
</svg>
