<svg width="30" height="29" viewBox="0 0 30 29" fill="none" xmlns="http://www.w3.org/2000/svg">
<path fill-rule="evenodd" clip-rule="evenodd" d="M15.1729 3.03436C17.072 2.96302 18.9737 3.0158 20.8659 3.19236C21.7837 3.1808 22.6954 3.34158 23.5539 3.66636C24.7376 4.21893 25.6886 5.17104 26.2399 6.35536C26.5647 7.21382 26.7255 8.1256 26.7139 9.04336C26.7139 10.4664 26.8719 10.9434 26.8719 14.7364C26.9432 16.6354 26.8904 18.5372 26.7139 20.4294C26.7255 21.3471 26.5647 22.2589 26.2399 23.1174C25.6885 24.3008 24.7379 25.2521 23.5549 25.8044C22.6964 26.1291 21.7847 26.2899 20.8669 26.2784C19.4439 26.2784 18.9669 26.4364 15.1739 26.4364C13.2748 26.5077 11.3731 26.4549 9.48089 26.2784C8.56245 26.2902 7.64997 26.1294 6.79089 25.8044C5.6066 25.2524 4.65482 24.3006 4.10289 23.1164C3.7781 22.2579 3.61732 21.3461 3.62889 20.4284C3.62889 19.0054 3.47089 18.5284 3.47089 14.7354C3.3993 12.837 3.45174 10.9359 3.62789 9.04436C3.61632 8.1266 3.7771 7.21482 4.10189 6.35636C4.3782 5.76964 4.75295 5.23458 5.20989 4.77436C5.5807 4.22141 6.14445 3.82668 6.79089 3.66736C7.64959 3.34212 8.56172 3.18099 9.47989 3.19236C11.3721 3.0158 13.2738 2.96302 15.1729 3.03436ZM15.1729 0.504365C13.2212 0.434711 11.267 0.487481 9.32189 0.662365C8.13235 0.659476 6.9523 0.874 5.83989 1.29536C4.88029 1.60825 4.01174 2.15101 3.30989 2.87636C2.58553 3.57787 2.04349 4.44568 1.73089 5.40436C1.23372 6.49437 1.01616 7.69112 1.09789 8.88636C0.923002 10.8315 0.870232 12.7856 0.939886 14.7374C0.870232 16.6891 0.923002 18.6432 1.09789 20.5884C1.09536 21.7769 1.30988 22.9559 1.73089 24.0674C2.04377 25.027 2.58653 25.8955 3.31189 26.5974C4.01295 27.3232 4.8808 27.8666 5.83989 28.1804C6.95136 28.6014 8.13036 28.8159 9.31889 28.8134C11.264 28.9882 13.2182 29.041 15.1699 28.9714C17.1216 29.041 19.0758 28.9882 21.0209 28.8134C22.2094 28.8159 23.3884 28.6014 24.4999 28.1804C25.4525 27.8522 26.3179 27.3113 27.0304 26.5989C27.7428 25.8864 28.2837 25.021 28.6119 24.0684C29.0329 22.9569 29.2474 21.7779 29.2449 20.5894C29.2449 19.0084 29.4029 18.5334 29.4029 14.7384C29.4725 12.7866 29.4198 10.8325 29.2449 8.88737C29.2492 7.69774 29.036 6.51735 28.6159 5.40436C28.303 4.44476 27.7602 3.57621 27.0349 2.87436C26.3325 2.1496 25.4636 1.60753 24.5039 1.29536C23.3924 0.87436 22.2134 0.659842 21.0249 0.662365C19.0794 0.487439 17.1249 0.434669 15.1729 0.504365ZM15.1729 7.46236C14.2132 7.44655 13.26 7.62391 12.3703 7.98391C11.4805 8.34392 10.6722 8.8792 9.99344 9.55792C9.31472 10.2366 8.77944 11.0449 8.41944 11.9347C8.05943 12.8245 7.88207 13.7776 7.89789 14.7374C7.89789 16.1762 8.32456 17.5828 9.12394 18.7791C9.92333 19.9755 11.0595 20.908 12.3889 21.4586C13.7182 22.0092 15.181 22.1533 16.5922 21.8726C18.0034 21.5919 19.2997 20.899 20.3171 19.8816C21.3345 18.8641 22.0274 17.5679 22.3081 16.1566C22.5888 14.7454 22.4447 13.2827 21.8941 11.9533C21.3435 10.624 20.411 9.48781 19.2147 8.68842C18.0183 7.88904 16.6117 7.46236 15.1729 7.46236ZM15.1729 19.4814C14.5468 19.4928 13.9248 19.3778 13.344 19.1435C12.7633 18.9091 12.2358 18.5601 11.793 18.1173C11.3502 17.6744 11.0012 17.1469 10.7668 16.5662C10.5324 15.9855 10.4175 15.3635 10.4289 14.7374C10.4175 14.1112 10.5324 13.4892 10.7668 12.9085C11.0012 12.3278 11.3502 11.8003 11.793 11.3575C12.2358 10.9147 12.7633 10.5656 13.344 10.3313C13.9248 10.0969 14.5468 9.98197 15.1729 9.99337C15.799 9.98197 16.421 10.0969 17.0017 10.3313C17.5824 10.5656 18.11 10.9147 18.5528 11.3575C18.9956 11.8003 19.3446 12.3278 19.579 12.9085C19.8134 13.4892 19.9283 14.1112 19.9169 14.7374C19.9283 15.3635 19.8134 15.9855 19.579 16.5662C19.3446 17.1469 18.9956 17.6744 18.5528 18.1173C18.11 18.5601 17.5824 18.9091 17.0017 19.1435C16.421 19.3778 15.799 19.4928 15.1729 19.4814ZM22.7639 5.40436C22.4197 5.40436 22.0833 5.50641 21.7972 5.69761C21.5111 5.8888 21.288 6.16055 21.1563 6.4785C21.0246 6.79644 20.9902 7.14629 21.0573 7.48382C21.1245 7.82135 21.2902 8.13139 21.5335 8.37473C21.7769 8.61807 22.0869 8.78379 22.4244 8.85093C22.762 8.91807 23.1118 8.88361 23.4298 8.75191C23.7477 8.62022 24.0195 8.3972 24.2106 8.11106C24.4018 7.82492 24.5039 7.4885 24.5039 7.14436C24.5 6.6841 24.3154 6.2438 23.9899 5.91833C23.6645 5.59286 23.2242 5.40828 22.7639 5.40436Z" fill="#FFCC00"/>
</svg>
